<svg width="100px" height="100px" viewBox="0 0 2 2" xmlns="http://www.w3.org/2000/svg" fill="#000000"><path fill-rule="evenodd" clip-rule="evenodd" d="M0.938 0.125a0.813 0.813 0 1 0 0 1.625 0.813 0.813 0 0 0 0 -1.625m0 1.5a0.688 0.688 0 1 1 0 -1.375 0.688 0.688 0 0 1 0 1.375m0.194 -1.052a0.225 0.225 0 0 0 -0.076 -0.052A0.281 0.281 0 0 0 0.941 0.5a0.275 0.275 0 0 0 -0.11 0.021c-0.03 0.013 -0.056 0.032 -0.077 0.056a0.237 0.237 0 0 0 -0.048 0.077 0.375 0.375 0 0 0 -0.019 0.09h0.154a0.105 0.105 0 0 1 0.063 -0.093 0.087 0.087 0 0 1 0.038 -0.006 0.113 0.113 0 0 1 0.034 0 0.075 0.075 0 0 1 0.028 0.018 0.075 0.075 0 0 1 0.02 0.028 0.087 0.087 0 0 1 0.007 0.037c0 0.022 -0.005 0.043 -0.014 0.063a0.3 0.3 0 0 1 -0.034 0.058l-0.044 0.052c-0.015 0.016 -0.03 0.034 -0.044 0.051a0.287 0.287 0 0 0 -0.034 0.056 0.15 0.15 0 0 0 -0.013 0.063v0.083H1v-0.061a0.117 0.117 0 0 1 0.014 -0.052 0.375 0.375 0 0 1 0.035 -0.051l0.045 -0.055a0.5 0.5 0 0 0 0.045 -0.06 0.325 0.325 0 0 0 0.035 -0.069 0.237 0.237 0 0 0 0.014 -0.08 0.275 0.275 0 0 0 -0.013 -0.084 0.188 0.188 0 0 0 -0.044 -0.069M0.85 1.229h0.146V1.375H0.85z"/></svg>