<svg width="100px" height="100px" viewBox="0 0 2 2" xmlns="http://www.w3.org/2000/svg" fill="#000000"><path fill-rule="evenodd" clip-rule="evenodd" d="M1.354 0.336A0.507 0.507 0 0 0 1.002 0.188h-0.005a0.507 0.507 0 0 0 -0.5 0.5c-0.002 0.094 0.025 0.186 0.076 0.265L0.967 1.75h0.067l0.393 -0.798c0.051 -0.079 0.077 -0.171 0.076 -0.265a0.507 0.507 0 0 0 -0.148 -0.351M0.991 0.313l0.01 0.001 0.009 -0.001a0.384 0.384 0 0 1 0.368 0.38 0.343 0.343 0 0 1 -0.058 0.196l-0.003 0.004 -0.002 0.004L1 1.535l-0.315 -0.637 -0.002 -0.005 -0.003 -0.004a0.343 0.343 0 0 1 -0.058 -0.196A0.384 0.384 0 0 1 0.991 0.313zm0.076 0.271a0.125 0.125 0 1 0 -0.139 0.208 0.125 0.125 0 0 0 0.139 -0.208M0.859 0.48a0.25 0.25 0 1 1 0.278 0.416 0.25 0.25 0 0 1 -0.278 -0.416"/></svg>

