<svg xmlns="http://www.w3.org/2000/svg" fill="none" viewBox="0 0 1000 108" height="108" width="1000">
<mask height="108" width="1000" y="0" x="0" maskUnits="userSpaceOnUse" style="mask-type:alpha" id="mask0_2476_583">
<rect fill="#D9D9D9" height="108" width="1000"></rect>
</mask>
<g mask="url(#mask0_2476_583)">
<mask fill="black" height="109" width="1000" y="-1.27441" x="0.0610352" maskUnits="userSpaceOnUse" id="path-2-outside-1_2476_583">
<rect height="109" width="1000" y="-1.27441" x="0.0610352" fill="white"></rect>
<path d="M32.3523 96.7256L12.0875 9.722H43.9708L50.5907 42.9563L55.5893 24.4478V9.722H82.2038L91.9309 43.0914L99.3613 9.722H131.109L110.98 96.7256H82.474L72.0714 62.4105L60.8582 96.7256H32.3523ZM135.444 96.7256V9.722H168.138V38.0927H189.889V9.722H222.583V96.7256H189.889V68.3549H168.138V96.7256H135.444ZM229.317 96.7256V9.722H298.893V33.2292H262.011V41.0649H293.759V65.3827H262.011V73.2184H298.893V96.7256H229.317ZM305.605 96.7256V9.722H354.511C361.987 9.722 368.156 11.1631 373.02 14.0452C377.883 16.8372 381.486 20.71 383.827 25.6637C386.259 30.5272 387.475 36.0663 387.475 42.2808C387.475 48.1351 385.944 53.2688 382.882 57.6821C379.91 62.0953 376.307 65.7429 372.074 68.6251C373.065 69.2555 373.83 69.976 374.371 70.7866C374.911 71.5072 375.361 72.2727 375.722 73.0833L385.989 96.7256H351.944L343.433 77.4065C342.983 76.3257 342.487 75.6052 341.947 75.2449C341.406 74.7946 340.641 74.5694 339.65 74.5694H338.299V96.7256H305.605ZM338.299 49.0357H346.27C351.584 49.0357 354.241 46.7841 354.241 42.2808C354.241 39.759 353.61 37.9576 352.349 36.8768C351.179 35.7961 349.332 35.2557 346.81 35.2557H338.299V49.0357ZM392.913 96.7256V9.722H462.489V33.2292H425.607V41.0649H457.355V65.3827H425.607V73.2184H462.489V96.7256H392.913ZM519.771 96.7256V33.2292H497.614V9.722H574.621V33.2292H552.464V96.7256H519.771ZM621.979 98.0766C612.162 98.0766 603.786 96.6355 596.851 93.7534C589.916 90.7812 584.602 86.0078 580.909 79.4329C577.216 72.8581 575.37 64.1218 575.37 53.2238C575.37 42.2358 577.216 33.4994 580.909 27.0146C584.602 20.4398 589.916 15.7114 596.851 12.8293C603.786 9.8571 612.162 8.37101 621.979 8.37101C631.796 8.37101 640.172 9.8571 647.107 12.8293C654.043 15.7114 659.356 20.4398 663.049 27.0146C666.742 33.4994 668.588 42.2358 668.588 53.2238C668.588 64.1218 666.742 72.8581 663.049 79.4329C659.356 86.0078 654.043 90.7812 647.107 93.7534C640.172 96.6355 631.796 98.0766 621.979 98.0766ZM621.979 70.3813C626.753 70.3813 630.13 69.1204 632.112 66.5986C634.183 63.9867 635.219 59.5284 635.219 53.2238C635.219 46.9192 634.183 42.506 632.112 39.9841C630.13 37.3722 626.753 36.0663 621.979 36.0663C617.206 36.0663 613.783 37.3722 611.712 39.9841C609.73 42.506 608.739 46.9192 608.739 53.2238C608.739 59.5284 609.73 63.9867 611.712 66.5986C613.783 69.1204 617.206 70.3813 621.979 70.3813ZM709.799 96.7256V9.722H761.406C770.323 9.722 777.213 11.8385 782.076 16.0716C787.03 20.3047 789.507 26.3842 789.507 34.31C789.507 38.6331 788.741 42.3258 787.21 45.3881C785.769 48.4503 783.833 50.8821 781.401 52.6834C784.823 54.3046 787.525 56.4211 789.507 59.033C791.488 61.5549 792.479 65.3376 792.479 70.3813C792.479 78.5773 789.777 85.017 784.373 89.7005C779.059 94.3839 771.584 96.7256 761.947 96.7256H709.799ZM740.466 43.0914H752.625C756.948 43.0914 759.11 41.155 759.11 37.2821C759.11 33.6795 756.948 31.8782 752.625 31.8782H740.466V43.0914ZM740.466 74.5694H752.625C756.948 74.5694 759.11 72.633 759.11 68.7601C759.11 65.1575 756.948 63.3562 752.625 63.3562H740.466V74.5694ZM840.064 98.0766C831.868 98.0766 824.483 96.7256 817.908 94.0236C811.333 91.3216 806.11 87.3137 802.237 81.9998C798.454 76.6859 796.563 70.1562 796.563 62.4105V9.722H829.256V58.2224C829.256 66.3284 832.859 70.3813 840.064 70.3813C847.27 70.3813 850.872 66.3284 850.872 58.2224V9.722H883.566V62.4105C883.566 70.1562 881.63 76.6859 877.757 81.9998C873.974 87.3137 868.795 91.3216 862.221 94.0236C855.646 96.7256 848.26 98.0766 840.064 98.0766ZM919.765 96.7256V65.1125L888.287 9.722H922.332L936.112 37.4172L949.892 9.722H983.937L952.459 65.1125V96.7256H919.765Z"></path>
</mask>
<path fill="white" d="M32.3523 96.7256L12.0875 9.722H43.9708L50.5907 42.9563L55.5893 24.4478V9.722H82.2038L91.9309 43.0914L99.3613 9.722H131.109L110.98 96.7256H82.474L72.0714 62.4105L60.8582 96.7256H32.3523ZM135.444 96.7256V9.722H168.138V38.0927H189.889V9.722H222.583V96.7256H189.889V68.3549H168.138V96.7256H135.444ZM229.317 96.7256V9.722H298.893V33.2292H262.011V41.0649H293.759V65.3827H262.011V73.2184H298.893V96.7256H229.317ZM305.605 96.7256V9.722H354.511C361.987 9.722 368.156 11.1631 373.02 14.0452C377.883 16.8372 381.486 20.71 383.827 25.6637C386.259 30.5272 387.475 36.0663 387.475 42.2808C387.475 48.1351 385.944 53.2688 382.882 57.6821C379.91 62.0953 376.307 65.7429 372.074 68.6251C373.065 69.2555 373.83 69.976 374.371 70.7866C374.911 71.5072 375.361 72.2727 375.722 73.0833L385.989 96.7256H351.944L343.433 77.4065C342.983 76.3257 342.487 75.6052 341.947 75.2449C341.406 74.7946 340.641 74.5694 339.65 74.5694H338.299V96.7256H305.605ZM338.299 49.0357H346.27C351.584 49.0357 354.241 46.7841 354.241 42.2808C354.241 39.759 353.61 37.9576 352.349 36.8768C351.179 35.7961 349.332 35.2557 346.81 35.2557H338.299V49.0357ZM392.913 96.7256V9.722H462.489V33.2292H425.607V41.0649H457.355V65.3827H425.607V73.2184H462.489V96.7256H392.913ZM519.771 96.7256V33.2292H497.614V9.722H574.621V33.2292H552.464V96.7256H519.771ZM621.979 98.0766C612.162 98.0766 603.786 96.6355 596.851 93.7534C589.916 90.7812 584.602 86.0078 580.909 79.4329C577.216 72.8581 575.37 64.1218 575.37 53.2238C575.37 42.2358 577.216 33.4994 580.909 27.0146C584.602 20.4398 589.916 15.7114 596.851 12.8293C603.786 9.8571 612.162 8.37101 621.979 8.37101C631.796 8.37101 640.172 9.8571 647.107 12.8293C654.043 15.7114 659.356 20.4398 663.049 27.0146C666.742 33.4994 668.588 42.2358 668.588 53.2238C668.588 64.1218 666.742 72.8581 663.049 79.4329C659.356 86.0078 654.043 90.7812 647.107 93.7534C640.172 96.6355 631.796 98.0766 621.979 98.0766ZM621.979 70.3813C626.753 70.3813 630.13 69.1204 632.112 66.5986C634.183 63.9867 635.219 59.5284 635.219 53.2238C635.219 46.9192 634.183 42.506 632.112 39.9841C630.13 37.3722 626.753 36.0663 621.979 36.0663C617.206 36.0663 613.783 37.3722 611.712 39.9841C609.73 42.506 608.739 46.9192 608.739 53.2238C608.739 59.5284 609.73 63.9867 611.712 66.5986C613.783 69.1204 617.206 70.3813 621.979 70.3813ZM709.799 96.7256V9.722H761.406C770.323 9.722 777.213 11.8385 782.076 16.0716C787.03 20.3047 789.507 26.3842 789.507 34.31C789.507 38.6331 788.741 42.3258 787.21 45.3881C785.769 48.4503 783.833 50.8821 781.401 52.6834C784.823 54.3046 787.525 56.4211 789.507 59.033C791.488 61.5549 792.479 65.3376 792.479 70.3813C792.479 78.5773 789.777 85.017 784.373 89.7005C779.059 94.3839 771.584 96.7256 761.947 96.7256H709.799ZM740.466 43.0914H752.625C756.948 43.0914 759.11 41.155 759.11 37.2821C759.11 33.6795 756.948 31.8782 752.625 31.8782H740.466V43.0914ZM740.466 74.5694H752.625C756.948 74.5694 759.11 72.633 759.11 68.7601C759.11 65.1575 756.948 63.3562 752.625 63.3562H740.466V74.5694ZM840.064 98.0766C831.868 98.0766 824.483 96.7256 817.908 94.0236C811.333 91.3216 806.11 87.3137 802.237 81.9998C798.454 76.6859 796.563 70.1562 796.563 62.4105V9.722H829.256V58.2224C829.256 66.3284 832.859 70.3813 840.064 70.3813C847.27 70.3813 850.872 66.3284 850.872 58.2224V9.722H883.566V62.4105C883.566 70.1562 881.63 76.6859 877.757 81.9998C873.974 87.3137 868.795 91.3216 862.221 94.0236C855.646 96.7256 848.26 98.0766 840.064 98.0766ZM919.765 96.7256V65.1125L888.287 9.722H922.332L936.112 37.4172L949.892 9.722H983.937L952.459 65.1125V96.7256H919.765Z"></path>
<path mask="url(#path-2-outside-1_2476_583)" fill="black" d="M32.3523 96.7256L23.5285 98.7808L25.1601 105.786H32.3523V96.7256ZM12.0875 9.722V0.662H0.674754L3.26371 11.7772L12.0875 9.722ZM43.9708 9.722L52.8563 7.95213L51.4042 0.662H43.9708V9.722ZM50.5907 42.9563L41.7052 44.7262L59.3373 45.3185L50.5907 42.9563ZM55.5893 24.4478L64.3359 26.81L64.6493 25.6497V24.4478H55.5893ZM55.5893 9.722V0.662H46.5293V9.722H55.5893ZM82.2038 9.722L90.9018 7.18655L88.9999 0.662H82.2038V9.722ZM91.9309 43.0914L83.2329 45.6268L100.774 45.0606L91.9309 43.0914ZM99.3613 9.722V0.662H92.0968L90.5179 7.75282L99.3613 9.722ZM131.109 9.722L139.936 11.7642L142.505 0.662H131.109V9.722ZM110.98 96.7256V105.786H118.183L119.807 98.7678L110.98 96.7256ZM82.474 96.7256L73.8036 99.354L75.7533 105.786H82.474V96.7256ZM72.0714 62.4105L80.7417 59.7821L72.3954 32.2502L63.4595 59.5964L72.0714 62.4105ZM60.8582 96.7256V105.786H67.4291L69.47 99.5397L60.8582 96.7256ZM41.1761 94.6703L20.9113 7.66677L3.26371 11.7772L23.5285 98.7808L41.1761 94.6703ZM12.0875 18.782H43.9708V0.662H12.0875V18.782ZM35.0854 11.4919L41.7052 44.7262L59.4761 41.1864L52.8563 7.95213L35.0854 11.4919ZM59.3373 45.3185L64.3359 26.81L46.8427 22.0855L41.844 40.5941L59.3373 45.3185ZM64.6493 24.4478V9.722H46.5293V24.4478H64.6493ZM55.5893 18.782H82.2038V0.662H55.5893V18.782ZM73.5058 12.2574L83.2329 45.6268L100.629 40.5559L90.9018 7.18655L73.5058 12.2574ZM100.774 45.0606L108.205 11.6912L90.5179 7.75282L83.0874 41.1222L100.774 45.0606ZM99.3613 18.782H131.109V0.662H99.3613V18.782ZM122.283 7.67977L102.153 94.6834L119.807 98.7678L139.936 11.7642L122.283 7.67977ZM110.98 87.6656H82.474V105.786H110.98V87.6656ZM91.1443 94.0972L80.7417 59.7821L63.401 65.0389L73.8036 99.354L91.1443 94.0972ZM63.4595 59.5964L52.2463 93.9115L69.47 99.5397L80.6832 65.2246L63.4595 59.5964ZM60.8582 87.6656H32.3523V105.786H60.8582V87.6656ZM135.444 96.7256H126.384V105.786H135.444V96.7256ZM135.444 9.722V0.662H126.384V9.722H135.444ZM168.138 9.722H177.198V0.662H168.138V9.722ZM168.138 38.0927H159.078V47.1527H168.138V38.0927ZM189.889 38.0927V47.1527H198.949V38.0927H189.889ZM189.889 9.722V0.662H180.829V9.722H189.889ZM222.583 9.722H231.643V0.662H222.583V9.722ZM222.583 96.7256V105.786H231.643V96.7256H222.583ZM189.889 96.7256H180.829V105.786H189.889V96.7256ZM189.889 68.3549H198.949V59.2949H189.889V68.3549ZM168.138 68.3549V59.2949H159.078V68.3549H168.138ZM168.138 96.7256V105.786H177.198V96.7256H168.138ZM144.504 96.7256V9.722H126.384V96.7256H144.504ZM135.444 18.782H168.138V0.662H135.444V18.782ZM159.078 9.722V38.0927H177.198V9.722H159.078ZM168.138 47.1527H189.889V29.0327H168.138V47.1527ZM198.949 38.0927V9.722H180.829V38.0927H198.949ZM189.889 18.782H222.583V0.662H189.889V18.782ZM213.523 9.722V96.7256H231.643V9.722H213.523ZM222.583 87.6656H189.889V105.786H222.583V87.6656ZM198.949 96.7256V68.3549H180.829V96.7256H198.949ZM189.889 59.2949H168.138V77.4149H189.889V59.2949ZM159.078 68.3549V96.7256H177.198V68.3549H159.078ZM168.138 87.6656H135.444V105.786H168.138V87.6656ZM229.317 96.7256H220.257V105.786H229.317V96.7256ZM229.317 9.722V0.662H220.257V9.722H229.317ZM298.893 9.722H307.953V0.662H298.893V9.722ZM298.893 33.2292V42.2892H307.953V33.2292H298.893ZM262.011 33.2292V24.1692H252.951V33.2292H262.011ZM262.011 41.0649H252.951V50.1249H262.011V41.0649ZM293.759 41.0649H302.819V32.0049H293.759V41.0649ZM293.759 65.3827V74.4427H302.819V65.3827H293.759ZM262.011 65.3827V56.3227H252.951V65.3827H262.011ZM262.011 73.2184H252.951V82.2784H262.011V73.2184ZM298.893 73.2184H307.953V64.1584H298.893V73.2184ZM298.893 96.7256V105.786H307.953V96.7256H298.893ZM238.377 96.7256V9.722H220.257V96.7256H238.377ZM229.317 18.782H298.893V0.662H229.317V18.782ZM289.833 9.722V33.2292H307.953V9.722H289.833ZM298.893 24.1692H262.011V42.2892H298.893V24.1692ZM252.951 33.2292V41.0649H271.071V33.2292H252.951ZM262.011 50.1249H293.759V32.0049H262.011V50.1249ZM284.699 41.0649V65.3827H302.819V41.0649H284.699ZM293.759 56.3227H262.011V74.4427H293.759V56.3227ZM252.951 65.3827V73.2184H271.071V65.3827H252.951ZM262.011 82.2784H298.893V64.1584H262.011V82.2784ZM289.833 73.2184V96.7256H307.953V73.2184H289.833ZM298.893 87.6656H229.317V105.786H298.893V87.6656ZM305.605 96.7256H296.545V105.786H305.605V96.7256ZM305.605 9.722V0.662H296.545V9.722H305.605ZM373.02 14.0452L368.401 21.8394L368.455 21.8713L368.509 21.9025L373.02 14.0452ZM383.827 25.6637L375.637 29.5357L375.679 29.626L375.724 29.7154L383.827 25.6637ZM382.882 57.6821L375.438 52.5171L375.402 52.5689L375.367 52.6211L382.882 57.6821ZM372.074 68.625L366.975 61.1361L355.6 68.8807L367.21 76.2686L372.074 68.625ZM374.371 70.7866L366.832 75.8122L366.972 76.0214L367.123 76.2226L374.371 70.7866ZM375.722 73.0833L384.032 69.4743L384.016 69.4389L384.001 69.4037L375.722 73.0833ZM385.989 96.7256V105.786H399.801L394.299 93.1166L385.989 96.7256ZM351.944 96.7256L343.653 100.378L346.035 105.786H351.944V96.7256ZM343.433 77.4065L335.07 80.8911L335.105 80.9755L335.142 81.0592L343.433 77.4065ZM341.947 75.2449L336.147 82.205L336.519 82.5148L336.921 82.7832L341.947 75.2449ZM338.299 74.5694V65.5094H329.239V74.5694H338.299ZM338.299 96.7256V105.786H347.359V96.7256H338.299ZM338.299 49.0357H329.239V58.0957H338.299V49.0357ZM352.349 36.8768L346.204 43.5342L346.327 43.6472L346.453 43.7557L352.349 36.8768ZM338.299 35.2557V26.1957H329.239V35.2557H338.299ZM314.665 96.7256V9.722H296.545V96.7256H314.665ZM305.605 18.782H354.511V0.662H305.605V18.782ZM354.511 18.782C360.87 18.782 365.317 20.0117 368.401 21.8394L377.638 6.25092C370.996 2.3144 363.103 0.662 354.511 0.662V18.782ZM368.509 21.9025C371.808 23.7962 374.105 26.2967 375.637 29.5357L392.018 21.7916C388.866 15.1234 383.959 9.87816 377.53 6.18785L368.509 21.9025ZM375.724 29.7154C377.442 33.152 378.415 37.2709 378.415 42.2808H396.535C396.535 34.8616 395.076 27.9024 391.931 21.6119L375.724 29.7154ZM378.415 42.2808C378.415 46.4629 377.353 49.7576 375.438 52.5171L390.325 62.847C394.535 56.7801 396.535 49.8072 396.535 42.2808H378.415ZM375.367 52.6211C373.013 56.1167 370.219 58.9276 366.975 61.1361L377.173 76.114C382.395 72.5583 386.806 68.0739 390.396 62.743L375.367 52.6211ZM367.21 76.2686C367.351 76.3584 367.12 76.2434 366.832 75.8122L381.909 65.7611C380.541 63.7087 378.778 62.1526 376.938 60.9815L367.21 76.2686ZM367.123 76.2226C367.261 76.4067 367.363 76.5842 367.442 76.7629L384.001 69.4037C383.36 67.9612 382.561 66.6076 381.619 65.3506L367.123 76.2226ZM367.411 76.6923L377.679 100.335L394.299 93.1166L384.032 69.4743L367.411 76.6923ZM385.989 87.6656H351.944V105.786H385.989V87.6656ZM360.235 93.0729L351.724 73.7538L335.142 81.0592L343.653 100.378L360.235 93.0729ZM351.796 73.9218C351.137 72.3404 349.779 69.5774 346.972 67.7065L336.921 82.7832C335.963 82.1445 335.451 81.4685 335.258 81.1882C335.054 80.8916 335.01 80.7482 335.07 80.8911L351.796 73.9218ZM347.747 68.2848C345.025 66.0163 341.906 65.5094 339.65 65.5094V83.6294C339.375 83.6294 337.788 83.5728 336.147 82.205L347.747 68.2848ZM339.65 65.5094H338.299V83.6294H339.65V65.5094ZM329.239 74.5694V96.7256H347.359V74.5694H329.239ZM338.299 87.6656H305.605V105.786H338.299V87.6656ZM338.299 58.0957H346.27V39.9757H338.299V58.0957ZM346.27 58.0957C349.991 58.0957 354.471 57.339 358.106 54.2588C362.027 50.9353 363.301 46.3578 363.301 42.2808H345.181C345.181 42.5355 345.141 42.3523 345.311 41.9198C345.503 41.4322 345.864 40.8812 346.391 40.4352C346.885 40.0163 347.276 39.9 347.294 39.8947C347.3 39.8931 347.225 39.9146 347.049 39.9359C346.874 39.9571 346.618 39.9757 346.27 39.9757V58.0957ZM363.301 42.2808C363.301 38.4963 362.369 33.532 358.246 29.998L346.453 43.7557C345.701 43.1106 345.349 42.4093 345.217 42.0314C345.107 41.7169 345.181 41.7309 345.181 42.2808H363.301ZM358.495 30.2195C354.907 26.9079 350.342 26.1957 346.81 26.1957V44.3157C347.461 44.3157 347.656 44.3896 347.542 44.3562C347.398 44.3142 346.837 44.1183 346.204 43.5342L358.495 30.2195ZM346.81 26.1957H338.299V44.3157H346.81V26.1957ZM329.239 35.2557V49.0357H347.359V35.2557H329.239ZM392.913 96.7256H383.853V105.786H392.913V96.7256ZM392.913 9.722V0.662H383.853V9.722H392.913ZM462.489 9.722H471.549V0.662H462.489V9.722ZM462.489 33.2292V42.2892H471.549V33.2292H462.489ZM425.607 33.2292V24.1692H416.547V33.2292H425.607ZM425.607 41.0649H416.547V50.1249H425.607V41.0649ZM457.355 41.0649H466.415V32.0049H457.355V41.0649ZM457.355 65.3827V74.4427H466.415V65.3827H457.355ZM425.607 65.3827V56.3227H416.547V65.3827H425.607ZM425.607 73.2184H416.547V82.2784H425.607V73.2184ZM462.489 73.2184H471.549V64.1584H462.489V73.2184ZM462.489 96.7256V105.786H471.549V96.7256H462.489ZM401.973 96.7256V9.722H383.853V96.7256H401.973ZM392.913 18.782H462.489V0.662H392.913V18.782ZM453.429 9.722V33.2292H471.549V9.722H453.429ZM462.489 24.1692H425.607V42.2892H462.489V24.1692ZM416.547 33.2292V41.0649H434.667V33.2292H416.547ZM425.607 50.1249H457.355V32.0049H425.607V50.1249ZM448.295 41.0649V65.3827H466.415V41.0649H448.295ZM457.355 56.3227H425.607V74.4427H457.355V56.3227ZM416.547 65.3827V73.2184H434.667V65.3827H416.547ZM425.607 82.2784H462.489V64.1584H425.607V82.2784ZM453.429 73.2184V96.7256H471.549V73.2184H453.429ZM462.489 87.6656H392.913V105.786H462.489V87.6656ZM519.771 96.7256H510.711V105.786H519.771V96.7256ZM519.771 33.2292H528.831V24.1692H519.771V33.2292ZM497.614 33.2292H488.554V42.2892H497.614V33.2292ZM497.614 9.722V0.662H488.554V9.722H497.614ZM574.621 9.722H583.681V0.662H574.621V9.722ZM574.621 33.2292V42.2892H583.681V33.2292H574.621ZM552.464 33.2292V24.1692H543.404V33.2292H552.464ZM552.464 96.7256V105.786H561.524V96.7256H552.464ZM528.831 96.7256V33.2292H510.711V96.7256H528.831ZM519.771 24.1692H497.614V42.2892H519.771V24.1692ZM506.674 33.2292V9.722H488.554V33.2292H506.674ZM497.614 18.782H574.621V0.662H497.614V18.782ZM565.561 9.722V33.2292H583.681V9.722H565.561ZM574.621 24.1692H552.464V42.2892H574.621V24.1692ZM543.404 33.2292V96.7256H561.524V33.2292H543.404ZM552.464 87.6656H519.771V105.786H552.464V87.6656ZM596.851 93.7534L593.282 102.081L593.328 102.101L593.374 102.12L596.851 93.7534ZM580.909 79.4329L588.808 74.9963L580.909 79.4329ZM580.909 27.0146L588.782 31.4979L588.795 31.4746L588.808 31.4513L580.909 27.0146ZM596.851 12.8293L600.328 21.1956L600.374 21.1764L600.42 21.1567L596.851 12.8293ZM647.107 12.8293L643.539 21.1567L643.584 21.1764L643.631 21.1956L647.107 12.8293ZM663.049 27.0146L655.15 31.4513L655.163 31.4746L655.176 31.4979L663.049 27.0146ZM663.049 79.4329L655.15 74.9963L663.049 79.4329ZM647.107 93.7534L650.584 102.12L650.63 102.101L650.676 102.081L647.107 93.7534ZM632.112 66.5986L625.013 60.9687L625 60.9849L624.987 61.0011L632.112 66.5986ZM632.112 39.9841L624.893 45.4599L624.999 45.5995L625.111 45.7349L632.112 39.9841ZM611.712 39.9841L604.613 34.3543L604.6 34.3704L604.588 34.3867L611.712 39.9841ZM611.712 66.5986L604.494 72.0743L604.599 72.2139L604.711 72.3493L611.712 66.5986ZM621.979 89.0166C613.006 89.0166 605.879 87.6941 600.328 85.3871L593.374 102.12C601.693 105.577 611.318 107.137 621.979 107.137V89.0166ZM600.42 85.426C595.316 83.2385 591.524 79.832 588.808 74.9963L573.01 83.8696C577.679 92.1835 584.516 98.324 593.282 102.081L600.42 85.426ZM588.808 74.9963C586.141 70.2472 584.43 63.2159 584.43 53.2238H566.31C566.31 65.0276 568.292 75.4691 573.01 83.8696L588.808 74.9963ZM584.43 53.2238C584.43 43.1162 586.15 36.1202 588.782 31.4979L573.036 22.5314C568.283 30.8786 566.31 41.3554 566.31 53.2238H584.43ZM588.808 31.4513C591.513 26.6364 595.273 23.2961 600.328 21.1956L593.374 4.46298C584.558 8.12666 577.691 14.2432 573.01 22.578L588.808 31.4513ZM600.42 21.1567C605.943 18.7898 613.036 17.431 621.979 17.431V-0.688986C611.288 -0.688986 601.629 0.924419 593.282 4.50182L600.42 21.1567ZM621.979 17.431C630.922 17.431 638.016 18.7898 643.539 21.1567L650.676 4.50182C642.329 0.924419 632.67 -0.688986 621.979 -0.688986V17.431ZM643.631 21.1956C648.685 23.2961 652.446 26.6364 655.15 31.4513L670.948 22.578C666.267 14.2432 659.4 8.12666 650.584 4.46298L643.631 21.1956ZM655.176 31.4979C657.808 36.1202 659.528 43.1162 659.528 53.2238H677.648C677.648 41.3554 675.675 30.8786 670.922 22.5314L655.176 31.4979ZM659.528 53.2238C659.528 63.2159 657.817 70.2472 655.15 74.9963L670.948 83.8696C675.667 75.4691 677.648 65.0276 677.648 53.2238H659.528ZM655.15 74.9963C652.434 79.832 648.643 83.2385 643.539 85.426L650.676 102.081C659.443 98.324 666.279 92.1835 670.948 83.8696L655.15 74.9963ZM643.631 85.3871C638.079 87.6941 630.952 89.0166 621.979 89.0166V107.137C632.641 107.137 642.265 105.577 650.584 102.12L643.631 85.3871ZM621.979 79.4413C628.132 79.4413 634.826 77.8087 639.236 72.196L624.987 61.0011C625.148 60.7965 625.252 60.8253 624.924 60.9479C624.518 61.0994 623.614 61.3213 621.979 61.3213V79.4413ZM639.21 72.2284C643.27 67.1091 644.279 59.9966 644.279 53.2238H626.159C626.159 55.9248 625.933 57.8872 625.617 59.2457C625.296 60.6279 624.965 61.0291 625.013 60.9687L639.21 72.2284ZM644.279 53.2238C644.279 46.5023 643.29 39.3195 639.112 34.2334L625.111 45.7349C624.992 45.591 625.305 45.9046 625.622 47.2555C625.932 48.5779 626.159 50.5196 626.159 53.2238H644.279ZM639.33 34.5084C634.956 28.7434 628.234 27.0063 621.979 27.0063V45.1263C623.585 45.1263 624.452 45.3517 624.825 45.496C625.116 45.6084 625.023 45.63 624.893 45.4599L639.33 34.5084ZM621.979 27.0063C615.689 27.0063 609.053 28.7563 604.613 34.3543L618.81 45.614C618.736 45.7072 618.717 45.6422 619.062 45.5104C619.482 45.3502 620.379 45.1263 621.979 45.1263V27.0063ZM604.588 34.3867C600.612 39.4471 599.679 46.5519 599.679 53.2238H617.799C617.799 50.4992 618.018 48.5267 618.322 47.1699C618.635 45.7756 618.948 45.438 618.836 45.5816L604.588 34.3867ZM599.679 53.2238C599.679 59.9475 600.631 66.9834 604.494 72.0743L618.93 61.1228C618.973 61.1806 618.643 60.7547 618.327 59.3306C618.017 57.9382 617.799 55.9453 617.799 53.2238H599.679ZM604.711 72.3493C609.183 77.7939 615.787 79.4413 621.979 79.4413V61.3213C620.349 61.3213 619.416 61.1008 618.964 60.9343C618.582 60.7935 618.61 60.7226 618.713 60.8478L604.711 72.3493ZM709.799 96.7256H700.739V105.786H709.799V96.7256ZM709.799 9.722V0.662H700.739V9.722H709.799ZM782.076 16.0716L776.128 22.9056L776.159 22.9326L776.19 22.9593L782.076 16.0716ZM787.21 45.3881L779.107 41.3363L779.058 41.4328L779.012 41.5303L787.21 45.3881ZM781.401 52.6834L776.008 45.4032L763.862 54.4005L777.522 60.8713L781.401 52.6834ZM789.507 59.033L782.289 64.5088L782.335 64.57L782.383 64.6305L789.507 59.033ZM784.373 89.7005L778.439 82.8539L778.411 82.8786L778.383 82.9036L784.373 89.7005ZM740.466 43.0914H731.406V52.1514H740.466V43.0914ZM740.466 31.8782V22.8182H731.406V31.8782H740.466ZM740.466 74.5694H731.406V83.6294H740.466V74.5694ZM740.466 63.3562V54.2962H731.406V63.3562H740.466ZM718.859 96.7256V9.722H700.739V96.7256H718.859ZM709.799 18.782H761.406V0.662H709.799V18.782ZM761.406 18.782C768.973 18.782 773.451 20.5754 776.128 22.9056L788.024 9.23765C780.975 3.10167 771.673 0.662 761.406 0.662V18.782ZM776.19 22.9593C778.698 25.1017 780.447 28.4068 780.447 34.31H798.567C798.567 24.3616 795.362 15.5078 787.962 9.18395L776.19 22.9593ZM780.447 34.31C780.447 37.5864 779.865 39.8186 779.107 41.3363L795.314 49.4398C797.617 44.833 798.567 39.6798 798.567 34.31H780.447ZM779.012 41.5303C778.132 43.4004 777.1 44.5947 776.008 45.4032L786.794 59.9636C790.566 57.1695 793.406 53.5002 795.408 49.2458L779.012 41.5303ZM777.522 60.8713C779.835 61.9667 781.314 63.2239 782.289 64.5088L796.725 53.5573C793.737 49.6183 789.812 46.6425 785.279 44.4955L777.522 60.8713ZM782.383 64.6305C782.571 64.8704 783.419 66.2775 783.419 70.3813H801.539C801.539 64.3978 800.405 58.2394 796.631 53.4356L782.383 64.6305ZM783.419 70.3813C783.419 76.3765 781.556 80.1524 778.439 82.8539L790.307 96.547C797.997 89.8816 801.539 80.7781 801.539 70.3813H783.419ZM778.383 82.9036C775.239 85.6742 770.179 87.6656 761.947 87.6656V105.786C772.989 105.786 782.879 103.094 790.364 96.4973L778.383 82.9036ZM761.947 87.6656H709.799V105.786H761.947V87.6656ZM740.466 52.1514H752.625V34.0314H740.466V52.1514ZM752.625 52.1514C755.952 52.1514 760.14 51.4278 763.534 48.3873C767.117 45.1769 768.17 40.8886 768.17 37.2821H750.05C750.05 37.4304 750.026 37.1659 750.213 36.6642C750.419 36.1096 750.815 35.4532 751.443 34.8909C752.676 33.7868 753.621 34.0314 752.625 34.0314V52.1514ZM768.17 37.2821C768.17 33.606 766.988 29.3519 763.288 26.2691C759.905 23.45 755.821 22.8182 752.625 22.8182V40.9382C753.751 40.9382 752.91 41.2071 751.688 40.1893C751.033 39.6429 750.561 38.9542 750.292 38.2827C750.169 37.9741 750.108 37.7191 750.078 37.5464C750.064 37.4604 750.057 37.3941 750.053 37.3503C750.05 37.3065 750.05 37.2831 750.05 37.2821H768.17ZM752.625 22.8182H740.466V40.9382H752.625V22.8182ZM731.406 31.8782V43.0914H749.526V31.8782H731.406ZM740.466 83.6294H752.625V65.5094H740.466V83.6294ZM752.625 83.6294C755.952 83.6294 760.14 82.9058 763.534 79.8653C767.117 76.6549 768.17 72.3666 768.17 68.7601H750.05C750.05 68.9085 750.026 68.6439 750.213 68.1422C750.419 67.5876 750.815 66.9312 751.443 66.3689C752.676 65.2648 753.621 65.5094 752.625 65.5094V83.6294ZM768.17 68.7601C768.17 65.084 766.988 60.8299 763.288 57.7471C759.905 54.928 755.821 54.2962 752.625 54.2962V72.4162C753.751 72.4162 752.91 72.6851 751.688 71.6673C751.033 71.1209 750.561 70.4322 750.292 69.7607C750.169 69.4521 750.108 69.1971 750.078 69.0244C750.064 68.9384 750.057 68.8721 750.053 68.8283C750.05 68.7845 750.05 68.7611 750.05 68.7601H768.17ZM752.625 54.2962H740.466V72.4162H752.625V54.2962ZM731.406 63.3562V74.5694H749.526V63.3562H731.406ZM817.908 94.0236L821.352 85.6437L817.908 94.0236ZM802.237 81.9998L794.856 87.254L794.885 87.2952L794.915 87.336L802.237 81.9998ZM796.563 9.722V0.662H787.503V9.722H796.563ZM829.256 9.722H838.316V0.662H829.256V9.722ZM850.872 9.722V0.662H841.812V9.722H850.872ZM883.566 9.722H892.626V0.662H883.566V9.722ZM877.757 81.9998L870.435 76.6636L870.405 76.7045L870.376 76.7456L877.757 81.9998ZM862.221 94.0236L858.777 85.6437L862.221 94.0236ZM840.064 89.0166C832.871 89.0166 826.68 87.8333 821.352 85.6437L814.464 102.404C822.286 105.618 830.866 107.137 840.064 107.137V89.0166ZM821.352 85.6437C816.196 83.5247 812.365 80.5144 809.558 76.6636L794.915 87.336C799.854 94.113 806.471 99.1185 814.464 102.404L821.352 85.6437ZM809.618 76.7456C807.12 73.2368 805.623 68.6349 805.623 62.4105H787.503C787.503 71.6774 789.788 80.1351 794.856 87.254L809.618 76.7456ZM805.623 62.4105V9.722H787.503V62.4105H805.623ZM796.563 18.782H829.256V0.662H796.563V18.782ZM820.196 9.722V58.2224H838.316V9.722H820.196ZM820.196 58.2224C820.196 63.4263 821.33 69.0214 825.187 73.3607C829.225 77.9034 834.771 79.4413 840.064 79.4413V61.3213C839.09 61.3213 838.633 61.1818 838.517 61.1383C838.454 61.1147 838.589 61.1641 838.73 61.3225C838.984 61.6088 838.316 61.1245 838.316 58.2224H820.196ZM840.064 79.4413C845.358 79.4413 850.904 77.9034 854.942 73.3607C858.799 69.0214 859.932 63.4263 859.932 58.2224H841.812C841.812 61.1245 841.144 61.6088 841.399 61.3225C841.539 61.1641 841.675 61.1147 841.612 61.1383C841.495 61.1818 841.039 61.3213 840.064 61.3213V79.4413ZM859.932 58.2224V9.722H841.812V58.2224H859.932ZM850.872 18.782H883.566V0.662H850.872V18.782ZM874.506 9.722V62.4105H892.626V9.722H874.506ZM874.506 62.4105C874.506 68.5901 872.987 73.1617 870.435 76.6636L885.079 87.336C890.272 80.2102 892.626 71.7222 892.626 62.4105H874.506ZM870.376 76.7456C867.673 80.5428 863.918 83.5308 858.777 85.6437L865.664 102.404C873.673 99.1125 880.275 94.0847 885.138 87.254L870.376 76.7456ZM858.777 85.6437C853.449 87.8333 847.258 89.0166 840.064 89.0166V107.137C849.263 107.137 857.843 105.618 865.664 102.404L858.777 85.6437ZM919.765 96.7256H910.705V105.786H919.765V96.7256ZM919.765 65.1125H928.825V62.7179L927.642 60.6361L919.765 65.1125ZM888.287 9.722V0.662H872.718L880.41 14.1984L888.287 9.722ZM922.332 9.722L930.443 5.68608L927.944 0.662H922.332V9.722ZM936.112 37.4172L928.001 41.4532L936.112 57.7555L944.224 41.4532L936.112 37.4172ZM949.892 9.722V0.662H944.281L941.781 5.68608L949.892 9.722ZM983.937 9.722L991.814 14.1984L999.507 0.662H983.937V9.722ZM952.459 65.1125L944.582 60.6361L943.399 62.7179V65.1125H952.459ZM952.459 96.7256V105.786H961.519V96.7256H952.459ZM928.825 96.7256V65.1125H910.705V96.7256H928.825ZM927.642 60.6361L896.164 5.24562L880.41 14.1984L911.888 69.5889L927.642 60.6361ZM888.287 18.782H922.332V0.662H888.287V18.782ZM914.221 13.7579L928.001 41.4532L944.224 33.3813L930.443 5.68608L914.221 13.7579ZM944.224 41.4532L958.004 13.7579L941.781 5.68608L928.001 33.3813L944.224 41.4532ZM949.892 18.782H983.937V0.662H949.892V18.782ZM976.06 5.24561L944.582 60.6361L960.336 69.5889L991.814 14.1984L976.06 5.24561ZM943.399 65.1125V96.7256H961.519V65.1125H943.399ZM952.459 87.6656H919.765V105.786H952.459V87.6656Z"></path>
<mask fill="black" height="105" width="995" y="0.725586" x="2.06104" maskUnits="userSpaceOnUse" id="path-4-outside-2_2476_583">
<rect height="105" width="995" y="0.725586" x="2.06104" fill="white"></rect>
<path d="M32.3523 96.7256L12.0875 9.722H43.9708L50.5907 42.9563L55.5893 24.4478V9.722H82.2038L91.9309 43.0914L99.3613 9.722H131.109L110.98 96.7256H82.474L72.0714 62.4105L60.8582 96.7256H32.3523ZM135.444 96.7256V9.722H168.138V38.0927H189.889V9.722H222.583V96.7256H189.889V68.3549H168.138V96.7256H135.444ZM229.317 96.7256V9.722H298.893V33.2292H262.011V41.0649H293.759V65.3827H262.011V73.2184H298.893V96.7256H229.317ZM305.605 96.7256V9.722H354.511C361.987 9.722 368.156 11.1631 373.02 14.0452C377.883 16.8372 381.486 20.71 383.827 25.6637C386.259 30.5272 387.475 36.0663 387.475 42.2808C387.475 48.1351 385.944 53.2688 382.882 57.6821C379.91 62.0953 376.307 65.7429 372.074 68.6251C373.065 69.2555 373.83 69.976 374.371 70.7866C374.911 71.5072 375.361 72.2727 375.722 73.0833L385.989 96.7256H351.944L343.433 77.4065C342.983 76.3257 342.487 75.6052 341.947 75.2449C341.406 74.7946 340.641 74.5694 339.65 74.5694H338.299V96.7256H305.605ZM338.299 49.0357H346.27C351.584 49.0357 354.241 46.7841 354.241 42.2808C354.241 39.759 353.61 37.9576 352.349 36.8768C351.179 35.7961 349.332 35.2557 346.81 35.2557H338.299V49.0357ZM392.913 96.7256V9.722H462.489V33.2292H425.607V41.0649H457.355V65.3827H425.607V73.2184H462.489V96.7256H392.913ZM519.771 96.7256V33.2292H497.614V9.722H574.621V33.2292H552.464V96.7256H519.771ZM621.979 98.0766C612.162 98.0766 603.786 96.6355 596.851 93.7534C589.916 90.7812 584.602 86.0078 580.909 79.4329C577.216 72.8581 575.37 64.1218 575.37 53.2238C575.37 42.2358 577.216 33.4994 580.909 27.0146C584.602 20.4398 589.916 15.7114 596.851 12.8293C603.786 9.8571 612.162 8.37101 621.979 8.37101C631.796 8.37101 640.172 9.8571 647.107 12.8293C654.043 15.7114 659.356 20.4398 663.049 27.0146C666.742 33.4994 668.588 42.2358 668.588 53.2238C668.588 64.1218 666.742 72.8581 663.049 79.4329C659.356 86.0078 654.043 90.7812 647.107 93.7534C640.172 96.6355 631.796 98.0766 621.979 98.0766ZM621.979 70.3813C626.753 70.3813 630.13 69.1204 632.112 66.5986C634.183 63.9867 635.219 59.5284 635.219 53.2238C635.219 46.9192 634.183 42.506 632.112 39.9841C630.13 37.3722 626.753 36.0663 621.979 36.0663C617.206 36.0663 613.783 37.3722 611.712 39.9841C609.73 42.506 608.739 46.9192 608.739 53.2238C608.739 59.5284 609.73 63.9867 611.712 66.5986C613.783 69.1204 617.206 70.3813 621.979 70.3813ZM709.799 96.7256V9.722H761.406C770.323 9.722 777.213 11.8385 782.076 16.0716C787.03 20.3047 789.507 26.3842 789.507 34.31C789.507 38.6331 788.741 42.3258 787.21 45.3881C785.769 48.4503 783.833 50.8821 781.401 52.6834C784.823 54.3046 787.525 56.4211 789.507 59.033C791.488 61.5549 792.479 65.3376 792.479 70.3813C792.479 78.5773 789.777 85.017 784.373 89.7005C779.059 94.3839 771.584 96.7256 761.947 96.7256H709.799ZM740.466 43.0914H752.625C756.948 43.0914 759.11 41.155 759.11 37.2821C759.11 33.6795 756.948 31.8782 752.625 31.8782H740.466V43.0914ZM740.466 74.5694H752.625C756.948 74.5694 759.11 72.633 759.11 68.7601C759.11 65.1575 756.948 63.3562 752.625 63.3562H740.466V74.5694ZM840.064 98.0766C831.868 98.0766 824.483 96.7256 817.908 94.0236C811.333 91.3216 806.11 87.3137 802.237 81.9998C798.454 76.6859 796.563 70.1562 796.563 62.4105V9.722H829.256V58.2224C829.256 66.3284 832.859 70.3813 840.064 70.3813C847.27 70.3813 850.872 66.3284 850.872 58.2224V9.722H883.566V62.4105C883.566 70.1562 881.63 76.6859 877.757 81.9998C873.974 87.3137 868.795 91.3216 862.221 94.0236C855.646 96.7256 848.26 98.0766 840.064 98.0766ZM919.765 96.7256V65.1125L888.287 9.722H922.332L936.112 37.4172L949.892 9.722H983.937L952.459 65.1125V96.7256H919.765Z"></path>
</mask>
<path fill="white" d="M32.3523 96.7256L12.0875 9.722H43.9708L50.5907 42.9563L55.5893 24.4478V9.722H82.2038L91.9309 43.0914L99.3613 9.722H131.109L110.98 96.7256H82.474L72.0714 62.4105L60.8582 96.7256H32.3523ZM135.444 96.7256V9.722H168.138V38.0927H189.889V9.722H222.583V96.7256H189.889V68.3549H168.138V96.7256H135.444ZM229.317 96.7256V9.722H298.893V33.2292H262.011V41.0649H293.759V65.3827H262.011V73.2184H298.893V96.7256H229.317ZM305.605 96.7256V9.722H354.511C361.987 9.722 368.156 11.1631 373.02 14.0452C377.883 16.8372 381.486 20.71 383.827 25.6637C386.259 30.5272 387.475 36.0663 387.475 42.2808C387.475 48.1351 385.944 53.2688 382.882 57.6821C379.91 62.0953 376.307 65.7429 372.074 68.6251C373.065 69.2555 373.83 69.976 374.371 70.7866C374.911 71.5072 375.361 72.2727 375.722 73.0833L385.989 96.7256H351.944L343.433 77.4065C342.983 76.3257 342.487 75.6052 341.947 75.2449C341.406 74.7946 340.641 74.5694 339.65 74.5694H338.299V96.7256H305.605ZM338.299 49.0357H346.27C351.584 49.0357 354.241 46.7841 354.241 42.2808C354.241 39.759 353.61 37.9576 352.349 36.8768C351.179 35.7961 349.332 35.2557 346.81 35.2557H338.299V49.0357ZM392.913 96.7256V9.722H462.489V33.2292H425.607V41.0649H457.355V65.3827H425.607V73.2184H462.489V96.7256H392.913ZM519.771 96.7256V33.2292H497.614V9.722H574.621V33.2292H552.464V96.7256H519.771ZM621.979 98.0766C612.162 98.0766 603.786 96.6355 596.851 93.7534C589.916 90.7812 584.602 86.0078 580.909 79.4329C577.216 72.8581 575.37 64.1218 575.37 53.2238C575.37 42.2358 577.216 33.4994 580.909 27.0146C584.602 20.4398 589.916 15.7114 596.851 12.8293C603.786 9.8571 612.162 8.37101 621.979 8.37101C631.796 8.37101 640.172 9.8571 647.107 12.8293C654.043 15.7114 659.356 20.4398 663.049 27.0146C666.742 33.4994 668.588 42.2358 668.588 53.2238C668.588 64.1218 666.742 72.8581 663.049 79.4329C659.356 86.0078 654.043 90.7812 647.107 93.7534C640.172 96.6355 631.796 98.0766 621.979 98.0766ZM621.979 70.3813C626.753 70.3813 630.13 69.1204 632.112 66.5986C634.183 63.9867 635.219 59.5284 635.219 53.2238C635.219 46.9192 634.183 42.506 632.112 39.9841C630.13 37.3722 626.753 36.0663 621.979 36.0663C617.206 36.0663 613.783 37.3722 611.712 39.9841C609.73 42.506 608.739 46.9192 608.739 53.2238C608.739 59.5284 609.73 63.9867 611.712 66.5986C613.783 69.1204 617.206 70.3813 621.979 70.3813ZM709.799 96.7256V9.722H761.406C770.323 9.722 777.213 11.8385 782.076 16.0716C787.03 20.3047 789.507 26.3842 789.507 34.31C789.507 38.6331 788.741 42.3258 787.21 45.3881C785.769 48.4503 783.833 50.8821 781.401 52.6834C784.823 54.3046 787.525 56.4211 789.507 59.033C791.488 61.5549 792.479 65.3376 792.479 70.3813C792.479 78.5773 789.777 85.017 784.373 89.7005C779.059 94.3839 771.584 96.7256 761.947 96.7256H709.799ZM740.466 43.0914H752.625C756.948 43.0914 759.11 41.155 759.11 37.2821C759.11 33.6795 756.948 31.8782 752.625 31.8782H740.466V43.0914ZM740.466 74.5694H752.625C756.948 74.5694 759.11 72.633 759.11 68.7601C759.11 65.1575 756.948 63.3562 752.625 63.3562H740.466V74.5694ZM840.064 98.0766C831.868 98.0766 824.483 96.7256 817.908 94.0236C811.333 91.3216 806.11 87.3137 802.237 81.9998C798.454 76.6859 796.563 70.1562 796.563 62.4105V9.722H829.256V58.2224C829.256 66.3284 832.859 70.3813 840.064 70.3813C847.27 70.3813 850.872 66.3284 850.872 58.2224V9.722H883.566V62.4105C883.566 70.1562 881.63 76.6859 877.757 81.9998C873.974 87.3137 868.795 91.3216 862.221 94.0236C855.646 96.7256 848.26 98.0766 840.064 98.0766ZM919.765 96.7256V65.1125L888.287 9.722H922.332L936.112 37.4172L949.892 9.722H983.937L952.459 65.1125V96.7256H919.765Z"></path>
<path mask="url(#path-4-outside-2_2476_583)" fill="url(#paint0_linear_2476_583)" d="M32.3523 96.7256L25.2913 98.3702L26.5969 103.976H32.3523V96.7256ZM12.0875 9.722V2.472H2.95479L5.02652 11.3666L12.0875 9.722ZM43.9708 9.722L51.0811 8.30572L49.9191 2.472H43.9708V9.722ZM50.5907 42.9563L43.4803 44.3726L57.5899 44.8466L50.5907 42.9563ZM55.5893 24.4478L62.5885 26.3381L62.8393 25.4095V24.4478H55.5893ZM55.5893 9.722V2.472H48.3393V9.722H55.5893ZM82.2038 9.722L89.1641 7.69308L87.6421 2.472H82.2038V9.722ZM91.9309 43.0914L84.9706 45.1203L99.0075 44.6672L91.9309 43.0914ZM99.3613 9.722V2.472H93.5481L92.2846 8.14622L99.3613 9.722ZM131.109 9.722L138.173 11.3562L140.228 2.472H131.109V9.722ZM110.98 96.7256V103.976H116.744L118.043 98.3598L110.98 96.7256ZM82.474 96.7256L75.5358 98.8289L77.096 103.976H82.474V96.7256ZM72.0714 62.4105L79.0096 60.3072L72.3307 38.2756L65.18 60.1586L72.0714 62.4105ZM60.8582 96.7256V103.976H66.1163L67.7496 98.9775L60.8582 96.7256ZM39.4133 95.0809L19.1485 8.07736L5.02652 11.3666L25.2913 98.3702L39.4133 95.0809ZM12.0875 16.972H43.9708V2.472H12.0875V16.972ZM36.8605 11.1383L43.4803 44.3726L57.701 41.54L51.0811 8.30572L36.8605 11.1383ZM57.5899 44.8466L62.5885 26.3381L48.5901 22.5575L43.5914 41.066L57.5899 44.8466ZM62.8393 24.4478V9.722H48.3393V24.4478H62.8393ZM55.5893 16.972H82.2038V2.472H55.5893V16.972ZM75.2434 11.7509L84.9706 45.1203L98.8912 41.0625L89.1641 7.69308L75.2434 11.7509ZM99.0075 44.6672L106.438 11.2978L92.2846 8.14622L84.8542 41.5156L99.0075 44.6672ZM99.3613 16.972H131.109V2.472H99.3613V16.972ZM124.046 8.08776L103.916 95.0913L118.043 98.3598L138.173 11.3562L124.046 8.08776ZM110.98 89.4756H82.474V103.976H110.98V89.4756ZM89.4121 94.6223L79.0096 60.3072L65.1332 64.5138L75.5358 98.8289L89.4121 94.6223ZM65.18 60.1586L53.9668 94.4737L67.7496 98.9775L78.9628 64.6624L65.18 60.1586ZM60.8582 89.4756H32.3523V103.976H60.8582V89.4756ZM135.444 96.7256H128.194V103.976H135.444V96.7256ZM135.444 9.722V2.472H128.194V9.722H135.444ZM168.138 9.722H175.388V2.472H168.138V9.722ZM168.138 38.0927H160.888V45.3427H168.138V38.0927ZM189.889 38.0927V45.3427H197.139V38.0927H189.889ZM189.889 9.722V2.472H182.639V9.722H189.889ZM222.583 9.722H229.833V2.472H222.583V9.722ZM222.583 96.7256V103.976H229.833V96.7256H222.583ZM189.889 96.7256H182.639V103.976H189.889V96.7256ZM189.889 68.3549H197.139V61.1049H189.889V68.3549ZM168.138 68.3549V61.1049H160.888V68.3549H168.138ZM168.138 96.7256V103.976H175.388V96.7256H168.138ZM142.694 96.7256V9.722H128.194V96.7256H142.694ZM135.444 16.972H168.138V2.472H135.444V16.972ZM160.888 9.722V38.0927H175.388V9.722H160.888ZM168.138 45.3427H189.889V30.8427H168.138V45.3427ZM197.139 38.0927V9.722H182.639V38.0927H197.139ZM189.889 16.972H222.583V2.472H189.889V16.972ZM215.333 9.722V96.7256H229.833V9.722H215.333ZM222.583 89.4756H189.889V103.976H222.583V89.4756ZM197.139 96.7256V68.3549H182.639V96.7256H197.139ZM189.889 61.1049H168.138V75.6049H189.889V61.1049ZM160.888 68.3549V96.7256H175.388V68.3549H160.888ZM168.138 89.4756H135.444V103.976H168.138V89.4756ZM229.317 96.7256H222.067V103.976H229.317V96.7256ZM229.317 9.722V2.472H222.067V9.722H229.317ZM298.893 9.722H306.143V2.472H298.893V9.722ZM298.893 33.2292V40.4792H306.143V33.2292H298.893ZM262.011 33.2292V25.9792H254.761V33.2292H262.011ZM262.011 41.0649H254.761V48.3149H262.011V41.0649ZM293.759 41.0649H301.009V33.8149H293.759V41.0649ZM293.759 65.3827V72.6327H301.009V65.3827H293.759ZM262.011 65.3827V58.1327H254.761V65.3827H262.011ZM262.011 73.2184H254.761V80.4684H262.011V73.2184ZM298.893 73.2184H306.143V65.9684H298.893V73.2184ZM298.893 96.7256V103.976H306.143V96.7256H298.893ZM236.567 96.7256V9.722H222.067V96.7256H236.567ZM229.317 16.972H298.893V2.472H229.317V16.972ZM291.643 9.722V33.2292H306.143V9.722H291.643ZM298.893 25.9792H262.011V40.4792H298.893V25.9792ZM254.761 33.2292V41.0649H269.261V33.2292H254.761ZM262.011 48.3149H293.759V33.8149H262.011V48.3149ZM286.509 41.0649V65.3827H301.009V41.0649H286.509ZM293.759 58.1327H262.011V72.6327H293.759V58.1327ZM254.761 65.3827V73.2184H269.261V65.3827H254.761ZM262.011 80.4684H298.893V65.9684H262.011V80.4684ZM291.643 73.2184V96.7256H306.143V73.2184H291.643ZM298.893 89.4756H229.317V103.976H298.893V89.4756ZM305.605 96.7256H298.355V103.976H305.605V96.7256ZM305.605 9.722V2.472H298.355V9.722H305.605ZM373.02 14.0452L369.324 20.2823L369.367 20.3078L369.41 20.3327L373.02 14.0452ZM383.827 25.6637L377.273 28.7622L377.307 28.8344L377.343 28.906L383.827 25.6637ZM382.882 57.6821L376.925 53.549L376.897 53.5904L376.868 53.6322L382.882 57.6821ZM372.074 68.625L367.994 62.6322L358.891 68.8296L368.182 74.7416L372.074 68.625ZM374.371 70.7866L368.338 74.8082L368.45 74.9756L368.571 75.1366L374.371 70.7866ZM375.722 73.0833L382.372 70.1953L382.359 70.167L382.347 70.1388L375.722 73.0833ZM385.989 96.7256V103.976H397.042L392.639 93.8376L385.989 96.7256ZM351.944 96.7256L345.31 99.6486L347.216 103.976H351.944V96.7256ZM343.433 77.4065L336.741 80.1949L336.769 80.2625L336.798 80.3294L343.433 77.4065ZM341.947 75.2449L337.306 80.8145L337.603 81.0624L337.925 81.2772L341.947 75.2449ZM338.299 74.5694V67.3194H331.049V74.5694H338.299ZM338.299 96.7256V103.976H345.549V96.7256H338.299ZM338.299 49.0357H331.049V56.2857H338.299V49.0357ZM352.349 36.8768L347.432 42.2042L347.53 42.2946L347.631 42.3815L352.349 36.8768ZM338.299 35.2557V28.0057H331.049V35.2557H338.299ZM312.855 96.7256V9.722H298.355V96.7256H312.855ZM305.605 16.972H354.511V2.472H305.605V16.972ZM354.511 16.972C361.093 16.972 365.884 18.2439 369.324 20.2823L376.716 7.80805C370.428 4.08218 362.88 2.472 354.511 2.472V16.972ZM369.41 20.3327C373.021 22.406 375.58 25.1806 377.273 28.7622L390.382 22.5651C387.392 16.2395 382.745 11.2684 376.629 7.75758L369.41 20.3327ZM377.343 28.906C379.204 32.6277 380.225 37.0303 380.225 42.2808H394.725C394.725 35.1023 393.315 28.4268 390.312 22.4214L377.343 28.906ZM380.225 42.2808C380.225 46.797 379.069 50.459 376.925 53.549L388.838 61.8151C392.819 56.0786 394.725 49.4732 394.725 42.2808H380.225ZM376.868 53.6322C374.391 57.3111 371.435 60.2892 367.994 62.6322L376.154 74.6179C381.179 71.1967 385.428 66.8795 388.895 61.7319L376.868 53.6322ZM368.182 74.7416C368.337 74.8402 368.407 74.9035 368.422 74.9177C368.435 74.93 368.397 74.8958 368.338 74.8082L380.403 66.7651C379.2 64.9608 377.637 63.5716 375.966 62.5085L368.182 74.7416ZM368.571 75.1366C368.789 75.4279 368.961 75.7229 369.096 76.0278L382.347 70.1388C381.762 68.8226 381.033 67.5864 380.171 66.4366L368.571 75.1366ZM369.072 75.9713L379.339 99.6136L392.639 93.8376L382.372 70.1953L369.072 75.9713ZM385.989 89.4756H351.944V103.976H385.989V89.4756ZM358.579 93.8026L350.068 74.4835L336.798 80.3294L345.31 99.6486L358.579 93.8026ZM350.125 74.618C349.508 73.1366 348.322 70.7816 345.968 69.2125L337.925 81.2772C337.212 80.8021 336.854 80.3151 336.749 80.1628C336.636 79.9974 336.648 79.9726 336.741 80.1949L350.125 74.618ZM346.588 69.6753C344.302 67.77 341.654 67.3194 339.65 67.3194V81.8194C339.628 81.8194 338.511 81.8191 337.306 80.8145L346.588 69.6753ZM339.65 67.3194H338.299V81.8194H339.65V67.3194ZM331.049 74.5694V96.7256H345.549V74.5694H331.049ZM338.299 89.4756H305.605V103.976H338.299V89.4756ZM338.299 56.2857H346.27V41.7857H338.299V56.2857ZM346.27 56.2857C349.778 56.2857 353.762 55.5677 356.935 52.878C360.339 49.9935 361.491 45.9932 361.491 42.2808H346.991C346.991 42.7095 346.926 42.7597 346.996 42.5823C347.032 42.4895 347.097 42.3568 347.203 42.2078C347.309 42.0575 347.433 41.9244 347.561 41.816C347.824 41.5933 347.971 41.5846 347.786 41.6366C347.583 41.6941 347.11 41.7857 346.27 41.7857V56.2857ZM361.491 42.2808C361.491 38.7486 360.619 34.4161 357.068 31.3722L347.631 42.3815C347.41 42.1918 347.239 41.9879 347.116 41.8003C346.996 41.6173 346.942 41.4818 346.925 41.4335C346.909 41.3884 346.927 41.4251 346.949 41.5707C346.97 41.7166 346.991 41.9482 346.991 42.2808H361.491ZM357.267 31.5495C354.162 28.6836 350.14 28.0057 346.81 28.0057V42.5057C347.185 42.5057 347.473 42.5259 347.685 42.5521C347.897 42.5784 348.013 42.6081 348.05 42.6191C348.12 42.6394 347.821 42.5636 347.432 42.2042L357.267 31.5495ZM346.81 28.0057H338.299V42.5057H346.81V28.0057ZM331.049 35.2557V49.0357H345.549V35.2557H331.049ZM392.913 96.7256H385.663V103.976H392.913V96.7256ZM392.913 9.722V2.472H385.663V9.722H392.913ZM462.489 9.722H469.739V2.472H462.489V9.722ZM462.489 33.2292V40.4792H469.739V33.2292H462.489ZM425.607 33.2292V25.9792H418.357V33.2292H425.607ZM425.607 41.0649H418.357V48.3149H425.607V41.0649ZM457.355 41.0649H464.605V33.8149H457.355V41.0649ZM457.355 65.3827V72.6327H464.605V65.3827H457.355ZM425.607 65.3827V58.1327H418.357V65.3827H425.607ZM425.607 73.2184H418.357V80.4684H425.607V73.2184ZM462.489 73.2184H469.739V65.9684H462.489V73.2184ZM462.489 96.7256V103.976H469.739V96.7256H462.489ZM400.163 96.7256V9.722H385.663V96.7256H400.163ZM392.913 16.972H462.489V2.472H392.913V16.972ZM455.239 9.722V33.2292H469.739V9.722H455.239ZM462.489 25.9792H425.607V40.4792H462.489V25.9792ZM418.357 33.2292V41.0649H432.857V33.2292H418.357ZM425.607 48.3149H457.355V33.8149H425.607V48.3149ZM450.105 41.0649V65.3827H464.605V41.0649H450.105ZM457.355 58.1327H425.607V72.6327H457.355V58.1327ZM418.357 65.3827V73.2184H432.857V65.3827H418.357ZM425.607 80.4684H462.489V65.9684H425.607V80.4684ZM455.239 73.2184V96.7256H469.739V73.2184H455.239ZM462.489 89.4756H392.913V103.976H462.489V89.4756ZM519.771 96.7256H512.521V103.976H519.771V96.7256ZM519.771 33.2292H527.021V25.9792H519.771V33.2292ZM497.614 33.2292H490.364V40.4792H497.614V33.2292ZM497.614 9.722V2.472H490.364V9.722H497.614ZM574.621 9.722H581.871V2.472H574.621V9.722ZM574.621 33.2292V40.4792H581.871V33.2292H574.621ZM552.464 33.2292V25.9792H545.214V33.2292H552.464ZM552.464 96.7256V103.976H559.714V96.7256H552.464ZM527.021 96.7256V33.2292H512.521V96.7256H527.021ZM519.771 25.9792H497.614V40.4792H519.771V25.9792ZM504.864 33.2292V9.722H490.364V33.2292H504.864ZM497.614 16.972H574.621V2.472H497.614V16.972ZM567.371 9.722V33.2292H581.871V9.722H567.371ZM574.621 25.9792H552.464V40.4792H574.621V25.9792ZM545.214 33.2292V96.7256H559.714V33.2292H545.214ZM552.464 89.4756H519.771V103.976H552.464V89.4756ZM596.851 93.7534L593.995 100.417L594.032 100.433L594.068 100.448L596.851 93.7534ZM580.909 79.4329L587.23 75.8827L580.909 79.4329ZM580.909 27.0146L587.209 30.6022L587.22 30.5836L587.23 30.5649L580.909 27.0146ZM596.851 12.8293L599.633 19.5241L599.67 19.5088L599.707 19.4931L596.851 12.8293ZM647.107 12.8293L644.252 19.4931L644.288 19.5088L644.325 19.5241L647.107 12.8293ZM663.049 27.0146L656.728 30.5649L656.738 30.5836L656.749 30.6022L663.049 27.0146ZM663.049 79.4329L656.728 75.8827L663.049 79.4329ZM647.107 93.7534L649.89 100.448L649.927 100.433L649.963 100.417L647.107 93.7534ZM632.112 66.5986L626.431 62.0935L626.421 62.1064L626.411 62.1194L632.112 66.5986ZM632.112 39.9841L626.336 44.3659L626.42 44.4776L626.509 44.586L632.112 39.9841ZM611.712 39.9841L606.031 35.479L606.021 35.4919L606.011 35.5049L611.712 39.9841ZM611.712 66.5986L605.936 70.9804L606.02 71.0921L606.109 71.2004L611.712 66.5986ZM621.979 90.8266C612.838 90.8266 605.461 89.4804 599.633 87.0585L594.068 100.448C602.111 103.791 611.486 105.327 621.979 105.327V90.8266ZM599.707 87.0896C594.237 84.7454 590.141 81.0658 587.23 75.8827L574.588 82.9832C579.062 90.9497 585.594 96.8171 593.995 100.417L599.707 87.0896ZM587.23 75.8827C584.358 70.7688 582.62 63.3969 582.62 53.2238H568.12C568.12 64.8466 570.075 74.9475 574.588 82.9832L587.23 75.8827ZM582.62 53.2238C582.62 42.9403 584.365 35.5966 587.209 30.6022L574.609 23.4271C570.068 31.4021 568.12 41.5313 568.12 53.2238H582.62ZM587.23 30.5649C590.132 25.3985 594.203 21.7808 599.633 19.5241L594.068 6.13439C585.628 9.64193 579.072 15.4812 574.588 23.4644L587.23 30.5649ZM599.707 19.4931C605.512 17.0052 612.861 15.621 621.979 15.621V1.12101C611.462 1.12101 602.06 2.70898 593.995 6.16547L599.707 19.4931ZM621.979 15.621C631.097 15.621 638.447 17.0052 644.252 19.4931L649.963 6.16547C641.898 2.70898 632.496 1.12101 621.979 1.12101V15.621ZM644.325 19.5241C649.755 21.7808 653.826 25.3985 656.728 30.5649L669.37 23.4644C664.887 15.4812 658.33 9.64193 649.89 6.13439L644.325 19.5241ZM656.749 30.6022C659.593 35.5966 661.338 42.9403 661.338 53.2238H675.838C675.838 41.5313 673.891 31.4021 669.349 23.4271L656.749 30.6022ZM661.338 53.2238C661.338 63.3969 659.6 70.7688 656.728 75.8827L669.37 82.9832C673.884 74.9475 675.838 64.8466 675.838 53.2238H661.338ZM656.728 75.8827C653.817 81.0658 649.721 84.7454 644.252 87.0896L649.963 100.417C658.364 96.8171 664.896 90.9497 669.37 82.9832L656.728 75.8827ZM644.325 87.0585C638.498 89.4804 631.121 90.8266 621.979 90.8266V105.327C632.472 105.327 641.847 103.791 649.89 100.448L644.325 87.0585ZM621.979 77.6313C627.857 77.6313 633.888 76.0729 637.812 71.0778L626.411 62.1194C626.373 62.1679 625.648 63.1313 621.979 63.1313V77.6313ZM637.792 71.1037C641.455 66.4853 642.469 59.9031 642.469 53.2238H627.969C627.969 59.1537 626.911 61.488 626.431 62.0935L637.792 71.1037ZM642.469 53.2238C642.469 46.5856 641.471 39.9561 637.714 35.3823L626.509 44.586C626.895 45.0558 627.969 47.2527 627.969 53.2238H642.469ZM637.888 35.6023C633.992 30.4672 627.938 28.8163 621.979 28.8163V43.3163C625.567 43.3163 626.268 44.2772 626.336 44.3659L637.888 35.6023ZM621.979 28.8163C615.992 28.8163 609.998 30.4776 606.031 35.479L617.392 44.4892C617.568 44.2668 618.419 43.3163 621.979 43.3163V28.8163ZM606.011 35.5049C602.433 40.0582 601.489 46.6253 601.489 53.2238H615.989C615.989 47.2131 617.027 44.9538 617.412 44.4633L606.011 35.5049ZM601.489 53.2238C601.489 59.8638 602.449 66.3847 605.936 70.9804L617.488 62.2168C617.011 61.5886 615.989 59.193 615.989 53.2238H601.489ZM606.109 71.2004C610.102 76.0611 616.07 77.6313 621.979 77.6313V63.1313C618.341 63.1313 617.464 62.1797 617.314 61.9967L606.109 71.2004ZM709.799 96.7256H702.549V103.976H709.799V96.7256ZM709.799 9.722V2.472H702.549V9.722H709.799ZM782.076 16.0716L777.317 21.5404L777.341 21.562L777.366 21.5833L782.076 16.0716ZM787.21 45.3881L780.726 42.1458L780.687 42.223L780.65 42.301L787.21 45.3881ZM781.401 52.6834L777.085 46.8576L767.366 54.0574L778.297 59.2355L781.401 52.6834ZM789.507 59.033L783.731 63.4148L783.768 63.4639L783.806 63.5122L789.507 59.033ZM784.373 89.7005L779.625 84.2217L779.602 84.2415L779.579 84.2614L784.373 89.7005ZM740.466 43.0914H733.216V50.3414H740.466V43.0914ZM740.466 31.8782V24.6282H733.216V31.8782H740.466ZM740.466 74.5694H733.216V81.8194H740.466V74.5694ZM740.466 63.3562V56.1062H733.216V63.3562H740.466ZM717.049 96.7256V9.722H702.549V96.7256H717.049ZM709.799 16.972H761.406V2.472H709.799V16.972ZM761.406 16.972C769.242 16.972 774.203 18.83 777.317 21.5404L786.836 10.6029C780.223 4.84712 771.403 2.472 761.406 2.472V16.972ZM777.366 21.5833C780.362 24.1434 782.257 28.0027 782.257 34.31H796.757C796.757 24.7656 793.698 16.4661 786.786 10.56L777.366 21.5833ZM782.257 34.31C782.257 37.7955 781.639 40.3195 780.726 42.1458L793.695 48.6304C795.844 44.3321 796.757 39.4707 796.757 34.31H782.257ZM780.65 42.301C779.658 44.4093 778.445 45.8508 777.085 46.8576L785.716 58.5092C789.221 55.9134 791.88 52.4913 793.77 48.4751L780.65 42.301ZM778.297 59.2355C780.831 60.4359 782.555 61.8649 783.731 63.4148L795.283 54.6512C792.496 50.9774 788.815 48.1732 784.504 46.1313L778.297 59.2355ZM783.806 63.5122C784.353 64.208 785.229 66.0897 785.229 70.3813H799.729C799.729 64.5855 798.624 58.9018 795.208 54.5538L783.806 63.5122ZM785.229 70.3813C785.229 76.8162 783.199 81.1243 779.625 84.2217L789.121 95.1792C796.355 88.9098 799.729 80.3385 799.729 70.3813H785.229ZM779.579 84.2614C776.002 87.4142 770.459 89.4756 761.947 89.4756V103.976C772.708 103.976 782.116 101.354 789.167 95.1395L779.579 84.2614ZM761.947 89.4756H709.799V103.976H761.947V89.4756ZM740.466 50.3414H752.625V35.8414H740.466V50.3414ZM752.625 50.3414C755.719 50.3414 759.394 49.6656 762.326 47.0391C765.41 44.2767 766.36 40.5549 766.36 37.2821H751.86C751.86 37.5942 751.814 37.5518 751.909 37.2954C752.021 36.9967 752.256 36.5923 752.651 36.239C753.028 35.9012 753.343 35.7946 753.387 35.7814C753.407 35.7757 753.188 35.8414 752.625 35.8414V50.3414ZM766.36 37.2821C766.36 33.9806 765.306 30.3064 762.13 27.6596C759.207 25.2237 755.615 24.6282 752.625 24.6282V39.1282C753.226 39.1282 753.492 39.1934 753.521 39.2014C753.533 39.2045 753.236 39.1227 752.847 38.7988C752.43 38.4515 752.134 38.0129 751.973 37.6105C751.83 37.2524 751.86 37.0916 751.86 37.2821H766.36ZM752.625 24.6282H740.466V39.1282H752.625V24.6282ZM733.216 31.8782V43.0914H747.716V31.8782H733.216ZM740.466 81.8194H752.625V67.3194H740.466V81.8194ZM752.625 81.8194C755.719 81.8194 759.394 81.1436 762.326 78.5171C765.41 75.7547 766.36 72.0329 766.36 68.7601H751.86C751.86 69.0723 751.814 69.0298 751.909 68.7734C752.021 68.4747 752.256 68.0703 752.651 67.717C753.028 67.3792 753.343 67.2726 753.387 67.2594C753.407 67.2537 753.188 67.3194 752.625 67.3194V81.8194ZM766.36 68.7601C766.36 65.4586 765.306 61.7844 762.13 59.1376C759.207 56.7017 755.615 56.1062 752.625 56.1062V70.6062C753.226 70.6062 753.492 70.6714 753.521 70.6795C753.533 70.6825 753.236 70.6007 752.847 70.2768C752.43 69.9295 752.134 69.4909 751.973 69.0885C751.83 68.7304 751.86 68.5696 751.86 68.7601H766.36ZM752.625 56.1062H740.466V70.6062H752.625V56.1062ZM733.216 63.3562V74.5694H747.716V63.3562H733.216ZM817.908 94.0236L820.664 87.3178L817.908 94.0236ZM802.237 81.9998L796.33 86.2043L796.354 86.2373L796.378 86.27L802.237 81.9998ZM796.563 9.722V2.472H789.313V9.722H796.563ZM829.256 9.722H836.506V2.472H829.256V9.722ZM850.872 9.722V2.472H843.622V9.722H850.872ZM883.566 9.722H890.816V2.472H883.566V9.722ZM877.757 81.9998L871.898 77.7297L871.874 77.7624L871.851 77.7953L877.757 81.9998ZM862.221 94.0236L859.465 87.3178L862.221 94.0236ZM840.064 90.8266C832.67 90.8266 826.241 89.6098 820.664 87.3178L815.152 100.729C822.725 103.841 831.066 105.327 840.064 105.327V90.8266ZM820.664 87.3178C815.224 85.0824 811.115 81.8728 808.096 77.7297L796.378 86.27C801.104 92.7546 807.442 97.5609 815.152 100.729L820.664 87.3178ZM808.143 77.7953C805.388 73.9259 803.813 68.9388 803.813 62.4105H789.313C789.313 71.3735 791.519 79.446 796.33 86.2043L808.143 77.7953ZM803.813 62.4105V9.722H789.313V62.4105H803.813ZM796.563 16.972H829.256V2.472H796.563V16.972ZM822.006 9.722V58.2224H836.506V9.722H822.006ZM822.006 58.2224C822.006 63.1964 823.093 68.281 826.54 72.1582C830.131 76.1982 835.108 77.6313 840.064 77.6313V63.1313C837.815 63.1313 837.389 62.5379 837.377 62.525C837.221 62.3493 836.506 61.3544 836.506 58.2224H822.006ZM840.064 77.6313C845.02 77.6313 849.998 76.1982 853.589 72.1582C857.035 68.281 858.122 63.1964 858.122 58.2224H843.622C843.622 61.3544 842.908 62.3493 842.752 62.525C842.74 62.5379 842.314 63.1313 840.064 63.1313V77.6313ZM858.122 58.2224V9.722H843.622V58.2224H858.122ZM850.872 16.972H883.566V2.472H850.872V16.972ZM876.316 9.722V62.4105H890.816V9.722H876.316ZM876.316 62.4105C876.316 68.903 874.714 73.8658 871.898 77.7297L883.616 86.27C888.546 79.5061 890.816 71.4093 890.816 62.4105H876.316ZM871.851 77.7953C868.932 81.8955 864.892 85.0873 859.465 87.3178L864.976 100.729C872.698 97.556 879.016 92.732 883.663 86.2043L871.851 77.7953ZM859.465 87.3178C853.888 89.6098 847.458 90.8266 840.064 90.8266V105.327C849.062 105.327 857.404 103.841 864.976 100.729L859.465 87.3178ZM919.765 96.7256H912.515V103.976H919.765V96.7256ZM919.765 65.1125H927.015V63.1963L926.068 61.5304L919.765 65.1125ZM888.287 9.722V2.472H875.828L881.984 13.3041L888.287 9.722ZM922.332 9.722L928.823 6.49237L926.823 2.472H922.332V9.722ZM936.112 37.4172L929.621 40.6469L936.112 53.6923L942.603 40.6469L936.112 37.4172ZM949.892 9.722V2.472H945.402L943.401 6.49237L949.892 9.722ZM983.937 9.722L990.24 13.3041L996.396 2.472H983.937V9.722ZM952.459 65.1125L946.156 61.5304L945.209 63.1963V65.1125H952.459ZM952.459 96.7256V103.976H959.709V96.7256H952.459ZM927.015 96.7256V65.1125H912.515V96.7256H927.015ZM926.068 61.5304L894.59 6.1399L881.984 13.3041L913.462 68.6946L926.068 61.5304ZM888.287 16.972H922.332V2.472H888.287V16.972ZM915.841 12.9516L929.621 40.6469L942.603 34.1876L928.823 6.49237L915.841 12.9516ZM942.603 40.6469L956.383 12.9516L943.401 6.49237L929.621 34.1876L942.603 40.6469ZM949.892 16.972H983.937V2.472H949.892V16.972ZM977.634 6.1399L946.156 61.5304L958.762 68.6946L990.24 13.3041L977.634 6.1399ZM945.209 65.1125V96.7256H959.709V65.1125H945.209ZM952.459 89.4756H919.765V103.976H952.459V89.4756Z"></path>
<mask fill="black" height="95" width="981" y="5.72559" x="8.06104" maskUnits="userSpaceOnUse" id="path-6-outside-3_2476_583">
<rect height="95" width="981" y="5.72559" x="8.06104" fill="white"></rect>
<path d="M32.3523 96.7256L12.0875 9.722H43.9708L50.5907 42.9563L55.5893 24.4478V9.722H82.2038L91.9309 43.0914L99.3613 9.722H131.109L110.98 96.7256H82.474L72.0714 62.4105L60.8582 96.7256H32.3523ZM135.444 96.7256V9.722H168.138V38.0927H189.889V9.722H222.583V96.7256H189.889V68.3549H168.138V96.7256H135.444ZM229.317 96.7256V9.722H298.893V33.2292H262.011V41.0649H293.759V65.3827H262.011V73.2184H298.893V96.7256H229.317ZM305.605 96.7256V9.722H354.511C361.987 9.722 368.156 11.1631 373.02 14.0452C377.883 16.8372 381.486 20.71 383.827 25.6637C386.259 30.5272 387.475 36.0663 387.475 42.2808C387.475 48.1351 385.944 53.2688 382.882 57.6821C379.91 62.0953 376.307 65.7429 372.074 68.6251C373.065 69.2555 373.83 69.976 374.371 70.7866C374.911 71.5072 375.361 72.2727 375.722 73.0833L385.989 96.7256H351.944L343.433 77.4065C342.983 76.3257 342.487 75.6052 341.947 75.2449C341.406 74.7946 340.641 74.5694 339.65 74.5694H338.299V96.7256H305.605ZM338.299 49.0357H346.27C351.584 49.0357 354.241 46.7841 354.241 42.2808C354.241 39.759 353.61 37.9576 352.349 36.8768C351.179 35.7961 349.332 35.2557 346.81 35.2557H338.299V49.0357ZM392.913 96.7256V9.722H462.489V33.2292H425.607V41.0649H457.355V65.3827H425.607V73.2184H462.489V96.7256H392.913ZM519.771 96.7256V33.2292H497.614V9.722H574.621V33.2292H552.464V96.7256H519.771ZM621.979 98.0766C612.162 98.0766 603.786 96.6355 596.851 93.7534C589.916 90.7812 584.602 86.0078 580.909 79.4329C577.216 72.8581 575.37 64.1218 575.37 53.2238C575.37 42.2358 577.216 33.4994 580.909 27.0146C584.602 20.4398 589.916 15.7114 596.851 12.8293C603.786 9.8571 612.162 8.37101 621.979 8.37101C631.796 8.37101 640.172 9.8571 647.107 12.8293C654.043 15.7114 659.356 20.4398 663.049 27.0146C666.742 33.4994 668.588 42.2358 668.588 53.2238C668.588 64.1218 666.742 72.8581 663.049 79.4329C659.356 86.0078 654.043 90.7812 647.107 93.7534C640.172 96.6355 631.796 98.0766 621.979 98.0766ZM621.979 70.3813C626.753 70.3813 630.13 69.1204 632.112 66.5986C634.183 63.9867 635.219 59.5284 635.219 53.2238C635.219 46.9192 634.183 42.506 632.112 39.9841C630.13 37.3722 626.753 36.0663 621.979 36.0663C617.206 36.0663 613.783 37.3722 611.712 39.9841C609.73 42.506 608.739 46.9192 608.739 53.2238C608.739 59.5284 609.73 63.9867 611.712 66.5986C613.783 69.1204 617.206 70.3813 621.979 70.3813ZM709.799 96.7256V9.722H761.406C770.323 9.722 777.213 11.8385 782.076 16.0716C787.03 20.3047 789.507 26.3842 789.507 34.31C789.507 38.6331 788.741 42.3258 787.21 45.3881C785.769 48.4503 783.833 50.8821 781.401 52.6834C784.823 54.3046 787.525 56.4211 789.507 59.033C791.488 61.5549 792.479 65.3376 792.479 70.3813C792.479 78.5773 789.777 85.017 784.373 89.7005C779.059 94.3839 771.584 96.7256 761.947 96.7256H709.799ZM740.466 43.0914H752.625C756.948 43.0914 759.11 41.155 759.11 37.2821C759.11 33.6795 756.948 31.8782 752.625 31.8782H740.466V43.0914ZM740.466 74.5694H752.625C756.948 74.5694 759.11 72.633 759.11 68.7601C759.11 65.1575 756.948 63.3562 752.625 63.3562H740.466V74.5694ZM840.064 98.0766C831.868 98.0766 824.483 96.7256 817.908 94.0236C811.333 91.3216 806.11 87.3137 802.237 81.9998C798.454 76.6859 796.563 70.1562 796.563 62.4105V9.722H829.256V58.2224C829.256 66.3284 832.859 70.3813 840.064 70.3813C847.27 70.3813 850.872 66.3284 850.872 58.2224V9.722H883.566V62.4105C883.566 70.1562 881.63 76.6859 877.757 81.9998C873.974 87.3137 868.795 91.3216 862.221 94.0236C855.646 96.7256 848.26 98.0766 840.064 98.0766ZM919.765 96.7256V65.1125L888.287 9.722H922.332L936.112 37.4172L949.892 9.722H983.937L952.459 65.1125V96.7256H919.765Z"></path>
</mask>
<path fill="white" d="M32.3523 96.7256L12.0875 9.722H43.9708L50.5907 42.9563L55.5893 24.4478V9.722H82.2038L91.9309 43.0914L99.3613 9.722H131.109L110.98 96.7256H82.474L72.0714 62.4105L60.8582 96.7256H32.3523ZM135.444 96.7256V9.722H168.138V38.0927H189.889V9.722H222.583V96.7256H189.889V68.3549H168.138V96.7256H135.444ZM229.317 96.7256V9.722H298.893V33.2292H262.011V41.0649H293.759V65.3827H262.011V73.2184H298.893V96.7256H229.317ZM305.605 96.7256V9.722H354.511C361.987 9.722 368.156 11.1631 373.02 14.0452C377.883 16.8372 381.486 20.71 383.827 25.6637C386.259 30.5272 387.475 36.0663 387.475 42.2808C387.475 48.1351 385.944 53.2688 382.882 57.6821C379.91 62.0953 376.307 65.7429 372.074 68.6251C373.065 69.2555 373.83 69.976 374.371 70.7866C374.911 71.5072 375.361 72.2727 375.722 73.0833L385.989 96.7256H351.944L343.433 77.4065C342.983 76.3257 342.487 75.6052 341.947 75.2449C341.406 74.7946 340.641 74.5694 339.65 74.5694H338.299V96.7256H305.605ZM338.299 49.0357H346.27C351.584 49.0357 354.241 46.7841 354.241 42.2808C354.241 39.759 353.61 37.9576 352.349 36.8768C351.179 35.7961 349.332 35.2557 346.81 35.2557H338.299V49.0357ZM392.913 96.7256V9.722H462.489V33.2292H425.607V41.0649H457.355V65.3827H425.607V73.2184H462.489V96.7256H392.913ZM519.771 96.7256V33.2292H497.614V9.722H574.621V33.2292H552.464V96.7256H519.771ZM621.979 98.0766C612.162 98.0766 603.786 96.6355 596.851 93.7534C589.916 90.7812 584.602 86.0078 580.909 79.4329C577.216 72.8581 575.37 64.1218 575.37 53.2238C575.37 42.2358 577.216 33.4994 580.909 27.0146C584.602 20.4398 589.916 15.7114 596.851 12.8293C603.786 9.8571 612.162 8.37101 621.979 8.37101C631.796 8.37101 640.172 9.8571 647.107 12.8293C654.043 15.7114 659.356 20.4398 663.049 27.0146C666.742 33.4994 668.588 42.2358 668.588 53.2238C668.588 64.1218 666.742 72.8581 663.049 79.4329C659.356 86.0078 654.043 90.7812 647.107 93.7534C640.172 96.6355 631.796 98.0766 621.979 98.0766ZM621.979 70.3813C626.753 70.3813 630.13 69.1204 632.112 66.5986C634.183 63.9867 635.219 59.5284 635.219 53.2238C635.219 46.9192 634.183 42.506 632.112 39.9841C630.13 37.3722 626.753 36.0663 621.979 36.0663C617.206 36.0663 613.783 37.3722 611.712 39.9841C609.73 42.506 608.739 46.9192 608.739 53.2238C608.739 59.5284 609.73 63.9867 611.712 66.5986C613.783 69.1204 617.206 70.3813 621.979 70.3813ZM709.799 96.7256V9.722H761.406C770.323 9.722 777.213 11.8385 782.076 16.0716C787.03 20.3047 789.507 26.3842 789.507 34.31C789.507 38.6331 788.741 42.3258 787.21 45.3881C785.769 48.4503 783.833 50.8821 781.401 52.6834C784.823 54.3046 787.525 56.4211 789.507 59.033C791.488 61.5549 792.479 65.3376 792.479 70.3813C792.479 78.5773 789.777 85.017 784.373 89.7005C779.059 94.3839 771.584 96.7256 761.947 96.7256H709.799ZM740.466 43.0914H752.625C756.948 43.0914 759.11 41.155 759.11 37.2821C759.11 33.6795 756.948 31.8782 752.625 31.8782H740.466V43.0914ZM740.466 74.5694H752.625C756.948 74.5694 759.11 72.633 759.11 68.7601C759.11 65.1575 756.948 63.3562 752.625 63.3562H740.466V74.5694ZM840.064 98.0766C831.868 98.0766 824.483 96.7256 817.908 94.0236C811.333 91.3216 806.11 87.3137 802.237 81.9998C798.454 76.6859 796.563 70.1562 796.563 62.4105V9.722H829.256V58.2224C829.256 66.3284 832.859 70.3813 840.064 70.3813C847.27 70.3813 850.872 66.3284 850.872 58.2224V9.722H883.566V62.4105C883.566 70.1562 881.63 76.6859 877.757 81.9998C873.974 87.3137 868.795 91.3216 862.221 94.0236C855.646 96.7256 848.26 98.0766 840.064 98.0766ZM919.765 96.7256V65.1125L888.287 9.722H922.332L936.112 37.4172L949.892 9.722H983.937L952.459 65.1125V96.7256H919.765Z"></path>
<path mask="url(#path-6-outside-3_2476_583)" fill="black" d="M32.3523 96.7256L29.9835 97.2773L30.4215 99.1578H32.3523V96.7256ZM12.0875 9.722V7.28978H9.02369L9.71871 10.2737L12.0875 9.722ZM43.9708 9.722L46.3562 9.24687L45.9663 7.28978H43.9708V9.722ZM50.5907 42.9563L48.2053 43.4314L52.9387 43.5904L50.5907 42.9563ZM55.5893 24.4478L57.9374 25.0819L58.0215 24.7704V24.4478H55.5893ZM55.5893 9.722V7.28978H53.1571V9.722H55.5893ZM82.2038 9.722L84.5388 9.04134L84.0282 7.28978H82.2038V9.722ZM91.9309 43.0914L89.5958 43.772L94.3049 43.62L91.9309 43.0914ZM99.3613 9.722V7.28978H97.4111L96.9872 9.19336L99.3613 9.722ZM131.109 9.722L133.479 10.2703L134.169 7.28978H131.109V9.722ZM110.98 96.7256V99.1578H112.914L113.349 97.2738L110.98 96.7256ZM82.474 96.7256L80.1463 97.4312L80.6698 99.1578H82.474V96.7256ZM72.0714 62.4105L74.399 61.7049L72.1584 54.3138L69.7594 61.655L72.0714 62.4105ZM60.8582 96.7256V99.1578H62.6222L63.1701 97.4811L60.8582 96.7256ZM34.7211 96.1738L14.4563 9.17026L9.71871 10.2737L29.9835 97.2773L34.7211 96.1738ZM12.0875 12.1542H43.9708V7.28978H12.0875V12.1542ZM41.5855 10.1971L48.2053 43.4314L52.976 42.4812L46.3562 9.24687L41.5855 10.1971ZM52.9387 43.5904L57.9374 25.0819L53.2412 23.8136L48.2426 42.3221L52.9387 43.5904ZM58.0215 24.4478V9.722H53.1571V24.4478H58.0215ZM55.5893 12.1542H82.2038V7.28978H55.5893V12.1542ZM79.8687 10.4027L89.5958 43.772L94.2659 42.4107L84.5388 9.04134L79.8687 10.4027ZM94.3049 43.62L101.735 10.2506L96.9872 9.19336L89.5568 42.5628L94.3049 43.62ZM99.3613 12.1542H131.109V7.28978H99.3613V12.1542ZM128.74 9.17375L108.61 96.1773L113.349 97.2738L133.479 10.2703L128.74 9.17375ZM110.98 94.2934H82.474V99.1578H110.98V94.2934ZM84.8016 96.02L74.399 61.7049L69.7437 63.1161L80.1463 97.4312L84.8016 96.02ZM69.7594 61.655L58.5462 95.9701L63.1701 97.4811L74.3833 63.166L69.7594 61.655ZM60.8582 94.2934H32.3523V99.1578H60.8582V94.2934ZM135.444 96.7256H133.012V99.1578H135.444V96.7256ZM135.444 9.722V7.28978H133.012V9.722H135.444ZM168.138 9.722H170.57V7.28978H168.138V9.722ZM168.138 38.0927H165.706V40.525H168.138V38.0927ZM189.889 38.0927V40.525H192.321V38.0927H189.889ZM189.889 9.722V7.28978H187.457V9.722H189.889ZM222.583 9.722H225.015V7.28978H222.583V9.722ZM222.583 96.7256V99.1578H225.015V96.7256H222.583ZM189.889 96.7256H187.457V99.1578H189.889V96.7256ZM189.889 68.3549H192.321V65.9226H189.889V68.3549ZM168.138 68.3549V65.9226H165.706V68.3549H168.138ZM168.138 96.7256V99.1578H170.57V96.7256H168.138ZM137.876 96.7256V9.722H133.012V96.7256H137.876ZM135.444 12.1542H168.138V7.28978H135.444V12.1542ZM165.706 9.722V38.0927H170.57V9.722H165.706ZM168.138 40.525H189.889V35.6605H168.138V40.525ZM192.321 38.0927V9.722H187.457V38.0927H192.321ZM189.889 12.1542H222.583V7.28978H189.889V12.1542ZM220.151 9.722V96.7256H225.015V9.722H220.151ZM222.583 94.2934H189.889V99.1578H222.583V94.2934ZM192.321 96.7256V68.3549H187.457V96.7256H192.321ZM189.889 65.9226H168.138V70.7871H189.889V65.9226ZM165.706 68.3549V96.7256H170.57V68.3549H165.706ZM168.138 94.2934H135.444V99.1578H168.138V94.2934ZM229.317 96.7256H226.885V99.1578H229.317V96.7256ZM229.317 9.722V7.28978H226.885V9.722H229.317ZM298.893 9.722H301.325V7.28978H298.893V9.722ZM298.893 33.2292V35.6614H301.325V33.2292H298.893ZM262.011 33.2292V30.797H259.578V33.2292H262.011ZM262.011 41.0649H259.578V43.4971H262.011V41.0649ZM293.759 41.0649H296.191V38.6327H293.759V41.0649ZM293.759 65.3827V67.8149H296.191V65.3827H293.759ZM262.011 65.3827V62.9505H259.578V65.3827H262.011ZM262.011 73.2184H259.578V75.6506H262.011V73.2184ZM298.893 73.2184H301.325V70.7862H298.893V73.2184ZM298.893 96.7256V99.1578H301.325V96.7256H298.893ZM231.749 96.7256V9.722H226.885V96.7256H231.749ZM229.317 12.1542H298.893V7.28978H229.317V12.1542ZM296.46 9.722V33.2292H301.325V9.722H296.46ZM298.893 30.797H262.011V35.6614H298.893V30.797ZM259.578 33.2292V41.0649H264.443V33.2292H259.578ZM262.011 43.4971H293.759V38.6327H262.011V43.4971ZM291.327 41.0649V65.3827H296.191V41.0649H291.327ZM293.759 62.9505H262.011V67.8149H293.759V62.9505ZM259.578 65.3827V73.2184H264.443V65.3827H259.578ZM262.011 75.6506H298.893V70.7862H262.011V75.6506ZM296.46 73.2184V96.7256H301.325V73.2184H296.46ZM298.893 94.2934H229.317V99.1578H298.893V94.2934ZM305.605 96.7256H303.173V99.1578H305.605V96.7256ZM305.605 9.722V7.28978H303.173V9.722H305.605ZM373.02 14.0452L371.78 16.1376L371.794 16.1461L371.809 16.1545L373.02 14.0452ZM383.827 25.6637L381.629 26.7031L381.64 26.7274L381.652 26.7514L383.827 25.6637ZM382.882 57.6821L380.884 56.2955L380.874 56.3094L380.864 56.3234L382.882 57.6821ZM372.074 68.625L370.705 66.6146L367.651 68.6937L370.768 70.677L372.074 68.625ZM374.371 70.7866L372.347 72.1358L372.384 72.192L372.425 72.246L374.371 70.7866ZM375.722 73.0833L377.952 72.1145L377.948 72.105L377.944 72.0955L375.722 73.0833ZM385.989 96.7256V99.1578H389.697L388.22 95.7567L385.989 96.7256ZM351.944 96.7256L349.718 97.7062L350.358 99.1578H351.944V96.7256ZM343.433 77.4065L341.188 78.3419L341.197 78.3646L341.207 78.3871L343.433 77.4065ZM341.947 75.2449L340.39 77.1134L340.49 77.1965L340.598 77.2686L341.947 75.2449ZM338.299 74.5694V72.1372H335.867V74.5694H338.299ZM338.299 96.7256V99.1578H340.731V96.7256H338.299ZM338.299 49.0357H335.867V51.468H338.299V49.0357ZM352.349 36.8768L350.7 38.664L350.733 38.6944L350.767 38.7235L352.349 36.8768ZM338.299 35.2557V32.8234H335.867V35.2557H338.299ZM308.038 96.7256V9.722H303.173V96.7256H308.038ZM305.605 12.1542H354.511V7.28978H305.605V12.1542ZM354.511 12.1542C361.687 12.1542 367.394 13.5385 371.78 16.1376L374.26 11.9527C368.918 8.78757 362.286 7.28978 354.511 7.28978V12.1542ZM371.809 16.1545C376.252 18.7054 379.504 22.2098 381.629 26.7031L386.026 24.6242C383.467 19.2103 379.514 14.969 374.23 11.9358L371.809 16.1545ZM381.652 26.7514C383.892 31.2319 385.043 36.3897 385.043 42.2808H389.907C389.907 35.7429 388.626 29.8226 386.003 24.5759L381.652 26.7514ZM385.043 42.2808C385.043 47.6862 383.638 52.3262 380.884 56.2955L384.88 59.0686C388.25 54.2114 389.907 48.584 389.907 42.2808H385.043ZM380.864 56.3234C378.058 60.4903 374.673 63.9133 370.705 66.6146L373.443 70.6355C377.941 67.5726 381.761 63.7003 384.899 59.0407L380.864 56.3234ZM370.768 70.677C371.531 71.1623 372.029 71.6586 372.347 72.1358L376.394 69.4375C375.632 68.2935 374.599 67.3487 373.38 66.5731L370.768 70.677ZM372.425 72.246C372.857 72.8225 373.214 73.4302 373.499 74.0711L377.944 72.0955C377.508 71.1153 376.965 70.1918 376.316 69.3273L372.425 72.246ZM373.491 74.0522L383.758 97.6944L388.22 95.7567L377.952 72.1145L373.491 74.0522ZM385.989 94.2934H351.944V99.1578H385.989V94.2934ZM354.17 95.745L345.659 76.4259L341.207 78.3871L349.718 97.7062L354.17 95.745ZM345.678 76.471C345.172 75.2558 344.445 73.987 343.296 73.2212L340.598 77.2686C340.538 77.2289 340.59 77.2451 340.719 77.4334C340.846 77.6173 341.007 77.9083 341.188 78.3419L345.678 76.471ZM343.504 73.3764C342.378 72.438 340.981 72.1372 339.65 72.1372V77.0016C340.301 77.0016 340.435 77.1511 340.39 77.1134L343.504 73.3764ZM339.65 72.1372H338.299V77.0016H339.65V72.1372ZM335.867 74.5694V96.7256H340.731V74.5694H335.867ZM338.299 94.2934H305.605V99.1578H338.299V94.2934ZM338.299 51.468H346.27V46.6035H338.299V51.468ZM346.27 51.468C349.213 51.468 351.873 50.853 353.821 49.2025C355.845 47.4867 356.673 45.0225 356.673 42.2808H351.809C351.809 44.0424 351.308 44.9556 350.676 45.4915C349.966 46.0926 348.641 46.6035 346.27 46.6035V51.468ZM356.673 42.2808C356.673 39.42 355.962 36.7695 353.932 35.0302L350.767 38.7235C351.259 39.1457 351.809 40.0979 351.809 42.2808H356.673ZM353.999 35.0896C352.18 33.41 349.603 32.8234 346.81 32.8234V37.6879C349.061 37.6879 350.178 38.1821 350.7 38.664L353.999 35.0896ZM346.81 32.8234H338.299V37.6879H346.81V32.8234ZM335.867 35.2557V49.0357H340.731V35.2557H335.867ZM392.913 96.7256H390.481V99.1578H392.913V96.7256ZM392.913 9.722V7.28978H390.481V9.722H392.913ZM462.489 9.722H464.921V7.28978H462.489V9.722ZM462.489 33.2292V35.6614H464.921V33.2292H462.489ZM425.607 33.2292V30.797H423.175V33.2292H425.607ZM425.607 41.0649H423.175V43.4971H425.607V41.0649ZM457.355 41.0649H459.787V38.6327H457.355V41.0649ZM457.355 65.3827V67.8149H459.787V65.3827H457.355ZM425.607 65.3827V62.9505H423.175V65.3827H425.607ZM425.607 73.2184H423.175V75.6506H425.607V73.2184ZM462.489 73.2184H464.921V70.7862H462.489V73.2184ZM462.489 96.7256V99.1578H464.921V96.7256H462.489ZM395.345 96.7256V9.722H390.481V96.7256H395.345ZM392.913 12.1542H462.489V7.28978H392.913V12.1542ZM460.056 9.722V33.2292H464.921V9.722H460.056ZM462.489 30.797H425.607V35.6614H462.489V30.797ZM423.175 33.2292V41.0649H428.039V33.2292H423.175ZM425.607 43.4971H457.355V38.6327H425.607V43.4971ZM454.923 41.0649V65.3827H459.787V41.0649H454.923ZM457.355 62.9505H425.607V67.8149H457.355V62.9505ZM423.175 65.3827V73.2184H428.039V65.3827H423.175ZM425.607 75.6506H462.489V70.7862H425.607V75.6506ZM460.056 73.2184V96.7256H464.921V73.2184H460.056ZM462.489 94.2934H392.913V99.1578H462.489V94.2934ZM519.771 96.7256H517.338V99.1578H519.771V96.7256ZM519.771 33.2292H522.203V30.797H519.771V33.2292ZM497.614 33.2292H495.182V35.6614H497.614V33.2292ZM497.614 9.722V7.28978H495.182V9.722H497.614ZM574.621 9.722H577.053V7.28978H574.621V9.722ZM574.621 33.2292V35.6614H577.053V33.2292H574.621ZM552.464 33.2292V30.797H550.032V33.2292H552.464ZM552.464 96.7256V99.1578H554.897V96.7256H552.464ZM522.203 96.7256V33.2292H517.338V96.7256H522.203ZM519.771 30.797H497.614V35.6614H519.771V30.797ZM500.047 33.2292V9.722H495.182V33.2292H500.047ZM497.614 12.1542H574.621V7.28978H497.614V12.1542ZM572.188 9.722V33.2292H577.053V9.722H572.188ZM574.621 30.797H552.464V35.6614H574.621V30.797ZM550.032 33.2292V96.7256H554.897V33.2292H550.032ZM552.464 94.2934H519.771V99.1578H552.464V94.2934ZM596.851 93.7534L595.893 95.989L595.905 95.9943L595.917 95.9994L596.851 93.7534ZM580.909 79.4329L583.03 78.2419L580.909 79.4329ZM580.909 27.0146L583.023 28.2182L583.026 28.2119L583.03 28.2057L580.909 27.0146ZM596.851 12.8293L597.784 15.0753L597.797 15.0701L597.809 15.0648L596.851 12.8293ZM647.107 12.8293L646.149 15.0648L646.162 15.0701L646.174 15.0753L647.107 12.8293ZM663.049 27.0146L660.928 28.2057L660.932 28.2119L660.936 28.2182L663.049 27.0146ZM663.049 79.4329L660.928 78.2419L663.049 79.4329ZM647.107 93.7534L648.041 95.9994L648.053 95.9943L648.066 95.989L647.107 93.7534ZM632.112 66.5986L630.206 65.0872L630.199 65.0959L632.112 66.5986ZM632.112 39.9841L630.174 41.4541L630.202 41.4916L630.232 41.5279L632.112 39.9841ZM611.712 39.9841L609.806 38.4727L609.799 38.4814L611.712 39.9841ZM611.712 66.5986L609.774 68.0686L609.802 68.106L609.832 68.1424L611.712 66.5986ZM621.979 95.6444C612.389 95.6444 604.348 94.2351 597.784 91.5074L595.917 95.9994C603.224 99.0359 611.935 100.509 621.979 100.509V95.6444ZM597.809 91.5179C591.365 88.7564 586.46 84.3498 583.03 78.2419L578.788 80.624C582.743 87.6657 588.466 92.8061 595.893 95.989L597.809 91.5179ZM583.03 78.2419C579.612 72.1572 577.802 63.8786 577.802 53.2238H572.938C572.938 64.3649 574.82 73.5591 578.788 80.624L583.03 78.2419ZM577.802 53.2238C577.802 42.4721 579.615 34.203 583.023 28.2182L578.796 25.8111C574.818 32.7958 572.938 41.9994 572.938 53.2238H577.802ZM583.03 28.2057C586.457 22.1034 591.354 17.7475 597.784 15.0753L595.917 10.5833C588.477 13.6752 582.747 18.7763 578.788 25.8236L583.03 28.2057ZM597.809 15.0648C604.365 12.2551 612.397 10.8032 621.979 10.8032V5.9388C611.927 5.9388 603.207 7.45906 595.893 10.5937L597.809 15.0648ZM621.979 10.8032C631.562 10.8032 639.593 12.2551 646.149 15.0648L648.066 10.5937C640.751 7.45906 632.031 5.9388 621.979 5.9388V10.8032ZM646.174 15.0753C652.604 17.7475 657.501 22.1034 660.928 28.2057L665.17 25.8236C661.212 18.7763 655.481 13.6752 648.041 10.5833L646.174 15.0753ZM660.936 28.2182C664.344 34.203 666.156 42.4721 666.156 53.2238H671.02C671.02 41.9994 669.14 32.7958 665.163 25.8111L660.936 28.2182ZM666.156 53.2238C666.156 63.8786 664.346 72.1572 660.928 78.2419L665.17 80.624C669.138 73.5591 671.02 64.3649 671.02 53.2238H666.156ZM660.928 78.2419C657.498 84.3498 652.593 88.7564 646.149 91.5179L648.066 95.989C655.492 92.8061 661.215 87.6657 665.17 80.624L660.928 78.2419ZM646.174 91.5074C639.611 94.2351 631.57 95.6444 621.979 95.6444V100.509C632.023 100.509 640.734 99.0359 648.041 95.9994L646.174 91.5074ZM621.979 72.8135C627.123 72.8135 631.391 71.4528 634.024 68.1012L630.199 65.0959C628.87 66.788 626.382 67.9491 621.979 67.9491V72.8135ZM634.017 68.1099C636.622 64.8249 637.651 59.6541 637.651 53.2238H632.787C632.787 59.4027 631.744 63.1484 630.206 65.0872L634.017 68.1099ZM637.651 53.2238C637.651 46.8073 636.628 41.6505 633.991 38.4403L630.232 41.5279C631.738 43.3614 632.787 47.0311 632.787 53.2238H637.651ZM634.049 38.5141C631.426 35.0557 627.15 33.634 621.979 33.634V38.4985C626.355 38.4985 628.834 39.6887 630.174 41.4541L634.049 38.5141ZM621.979 33.634C616.798 33.634 612.513 35.0592 609.806 38.4728L613.617 41.4955C615.053 39.6852 617.613 38.4985 621.979 38.4985V33.634ZM609.799 38.4814C607.282 41.6848 606.307 46.8206 606.307 53.2238H611.172C611.172 47.0178 612.178 43.3271 613.624 41.4868L609.799 38.4814ZM606.307 53.2238C606.307 59.6409 607.288 64.7911 609.774 68.0686L613.649 65.1286C612.173 63.1822 611.172 59.4159 611.172 53.2238H606.307ZM609.832 68.1424C612.548 71.4489 616.825 72.8135 621.979 72.8135V67.9491C617.586 67.9491 615.018 66.792 613.591 65.0547L609.832 68.1424ZM709.799 96.7256H707.366V99.1578H709.799V96.7256ZM709.799 9.722V7.28978H707.366V9.722H709.799ZM782.076 16.0716L780.48 17.9063L780.488 17.9135L780.496 17.9207L782.076 16.0716ZM787.21 45.3881L785.035 44.3004L785.022 44.3262L785.009 44.3524L787.21 45.3881ZM781.401 52.6834L779.953 50.729L776.692 53.1444L780.36 54.8815L781.401 52.6834ZM789.507 59.033L787.569 60.503L787.582 60.5195L787.594 60.5357L789.507 59.033ZM784.373 89.7005L782.78 87.8624L782.772 87.8691L782.765 87.8758L784.373 89.7005ZM740.466 43.0914H738.034V45.5236H740.466V43.0914ZM740.466 31.8782V29.446H738.034V31.8782H740.466ZM740.466 74.5694H738.034V77.0016H740.466V74.5694ZM740.466 63.3562V60.924H738.034V63.3562H740.466ZM712.231 96.7256V9.722H707.366V96.7256H712.231ZM709.799 12.1542H761.406V7.28978H709.799V12.1542ZM761.406 12.1542C769.96 12.1542 776.203 14.184 780.48 17.9063L783.673 14.237C778.223 9.49308 770.685 7.28978 761.406 7.28978V12.1542ZM780.496 17.9207C784.793 21.5925 787.075 26.9272 787.075 34.31H791.939C791.939 25.8412 789.267 19.017 783.656 14.2226L780.496 17.9207ZM787.075 34.31C787.075 38.3521 786.358 41.6528 785.035 44.3004L789.386 46.4758C791.124 42.9989 791.939 38.9141 791.939 34.31H787.075ZM785.009 44.3524C783.719 47.0946 782.025 49.1942 779.953 50.729L782.849 54.6378C785.64 52.57 787.819 49.806 789.411 46.4237L785.009 44.3524ZM780.36 54.8815C783.484 56.3615 785.858 58.2474 787.569 60.503L791.445 57.563C789.193 54.5949 786.163 52.2476 782.442 50.4853L780.36 54.8815ZM787.594 60.5357C789.094 62.4449 790.047 65.59 790.047 70.3813H794.911C794.911 65.0853 793.882 60.6648 791.419 57.5304L787.594 60.5357ZM790.047 70.3813C790.047 77.9865 787.57 83.7111 782.78 87.8624L785.966 91.5385C791.984 86.323 794.911 79.1681 794.911 70.3813H790.047ZM782.765 87.8758C778.034 92.0457 771.206 94.2934 761.947 94.2934V99.1578C771.961 99.1578 780.085 96.722 785.981 91.5251L782.765 87.8758ZM761.947 94.2934H709.799V99.1578H761.947V94.2934ZM740.466 45.5236H752.625V40.6592H740.466V45.5236ZM752.625 45.5236C755.099 45.5236 757.409 44.9752 759.111 43.4507C760.864 41.8805 761.542 39.6669 761.542 37.2821H756.677C756.677 38.7702 756.274 39.4612 755.865 39.8275C755.406 40.2394 754.473 40.6592 752.625 40.6592V45.5236ZM761.542 37.2821C761.542 34.9775 760.829 32.8472 759.045 31.3607C757.347 29.945 755.064 29.446 752.625 29.446V34.3104C754.509 34.3104 755.469 34.712 755.931 35.0977C756.309 35.4125 756.677 35.9841 756.677 37.2821H761.542ZM752.625 29.446H740.466V34.3104H752.625V29.446ZM738.034 31.8782V43.0914H742.898V31.8782H738.034ZM740.466 77.0016H752.625V72.1372H740.466V77.0016ZM752.625 77.0016C755.099 77.0016 757.409 76.4532 759.111 74.9287C760.864 73.3585 761.542 71.1449 761.542 68.7601H756.677C756.677 70.2482 756.274 70.9392 755.865 71.3055C755.406 71.7174 754.473 72.1372 752.625 72.1372V77.0016ZM761.542 68.7601C761.542 66.4555 760.829 64.3252 759.045 62.8387C757.347 61.423 755.064 60.924 752.625 60.924V65.7884C754.509 65.7884 755.469 66.19 755.931 66.5757C756.309 66.8905 756.677 67.4621 756.677 68.7601H761.542ZM752.625 60.924H740.466V65.7884H752.625V60.924ZM738.034 63.3562V74.5694H742.898V63.3562H738.034ZM817.908 94.0236L818.833 91.774L817.908 94.0236ZM802.237 81.9998L800.255 83.4103L800.263 83.4214L800.271 83.4324L802.237 81.9998ZM796.563 9.722V7.28978H794.13V9.722H796.563ZM829.256 9.722H831.689V7.28978H829.256V9.722ZM850.872 9.722V7.28978H848.44V9.722H850.872ZM883.566 9.722H885.998V7.28978H883.566V9.722ZM877.757 81.9998L875.791 80.5673L875.783 80.5782L875.775 80.5893L877.757 81.9998ZM862.221 94.0236L861.296 91.774L862.221 94.0236ZM840.064 95.6444C832.137 95.6444 825.073 94.3384 818.833 91.774L816.984 96.2733C823.893 99.1128 831.599 100.509 840.064 100.509V95.6444ZM818.833 91.774C812.639 89.2285 807.789 85.4884 804.202 80.5673L800.271 83.4324C804.43 89.139 810.028 93.4148 816.984 96.2733L818.833 91.774ZM804.218 80.5893C800.78 75.76 798.995 69.7478 798.995 62.4105H794.13C794.13 70.5646 796.128 77.6119 800.255 83.4103L804.218 80.5893ZM798.995 62.4105V9.722H794.13V62.4105H798.995ZM796.563 12.1542H829.256V7.28978H796.563V12.1542ZM826.824 9.722V58.2224H831.689V9.722H826.824ZM826.824 58.2224C826.824 62.5844 827.787 66.3101 830.141 68.9575C832.542 71.6595 836.008 72.8135 840.064 72.8135V67.9491C836.916 67.9491 834.977 67.0767 833.776 65.7257C832.527 64.3202 831.689 61.9664 831.689 58.2224H826.824ZM840.064 72.8135C844.121 72.8135 847.586 71.6595 849.988 68.9575C852.341 66.3101 853.304 62.5844 853.304 58.2224H848.44C848.44 61.9664 847.602 64.3202 846.352 65.7257C845.151 67.0767 843.213 67.9491 840.064 67.9491V72.8135ZM853.304 58.2224V9.722H848.44V58.2224H853.304ZM850.872 12.1542H883.566V7.28978H850.872V12.1542ZM881.134 9.722V62.4105H885.998V9.722H881.134ZM881.134 62.4105C881.134 69.7358 879.31 75.7398 875.791 80.5673L879.722 83.4324C883.95 77.632 885.998 70.5766 885.998 62.4105H881.134ZM875.775 80.5893C872.283 85.496 867.486 89.2301 861.296 91.774L863.145 96.2733C870.105 93.4131 875.666 89.1314 879.738 83.4103L875.775 80.5893ZM861.296 91.774C855.056 94.3384 847.991 95.6444 840.064 95.6444V100.509C848.529 100.509 856.236 99.1128 863.145 96.2733L861.296 91.774ZM919.765 96.7256H917.333V99.1578H919.765V96.7256ZM919.765 65.1125H922.197V64.4697L921.88 63.9108L919.765 65.1125ZM888.287 9.722V7.28978H884.107L886.173 10.9237L888.287 9.722ZM922.332 9.722L924.51 8.63853L923.839 7.28978H922.332V9.722ZM936.112 37.4172L933.935 38.5007L936.112 42.8772L938.29 38.5007L936.112 37.4172ZM949.892 9.722V7.28978H948.386L947.715 8.63853L949.892 9.722ZM983.937 9.722L986.052 10.9237L988.117 7.28978H983.937V9.722ZM952.459 65.1125L950.344 63.9108L950.027 64.4697V65.1125H952.459ZM952.459 96.7256V99.1578H954.891V96.7256H952.459ZM922.197 96.7256V65.1125H917.333V96.7256H922.197ZM921.88 63.9108L890.402 8.52029L886.173 10.9237L917.651 66.3142L921.88 63.9108ZM888.287 12.1542H922.332V7.28978H888.287V12.1542ZM920.155 10.8055L933.935 38.5007L938.29 36.3338L924.51 8.63853L920.155 10.8055ZM938.29 38.5007L952.07 10.8055L947.715 8.63853L933.935 36.3338L938.29 38.5007ZM949.892 12.1542H983.937V7.28978H949.892V12.1542ZM981.823 8.52029L950.344 63.9108L954.574 66.3142L986.052 10.9237L981.823 8.52029ZM950.027 65.1125V96.7256H954.891V65.1125H950.027ZM952.459 94.2934H919.765V99.1578H952.459V94.2934Z"></path>
</g>
<defs>
<linearGradient gradientUnits="userSpaceOnUse" y2="86.7256" x2="498.061" y1="11.7256" x1="498.061" id="paint0_linear_2476_583">
<stop stop-color="#00D0FF"></stop>
<stop stop-color="#0097EC" offset="1"></stop>
</linearGradient>
</defs>
</svg>
